<svg id="圖層_1" data-name="圖層 1"
    xmlns="http://www.w3.org/2000/svg" viewBox="0 0 65 50">
    <defs>
        <style>.cls-1{fill:#fff;}.cls-2{fill:rgb(6, 70, 107);}</style>
    </defs>
    <polygon class="cls-1" points="63.51 18.72 16.82 4.9 1.35 4.9 1.35 16.36 18.13 45.1 63.65 45.1 63.65 18.72 63.51 18.72"/>
    <path class="cls-2" d="M22.79,39.46V33.52H21.9v-1h.89v-.43a2.46,2.46,0,0,1,2.67-2.63,3.15,3.15,0,0,1,1.43.32l-.25,1a3,3,0,0,0-1.18-.26c-1.09,0-1.36.72-1.36,1.66v.32h3.19v6.91H26V33.52H24.1v5.94Z"/>
    <path class="cls-2" d="M28.76,29.61h1.31v9.85H28.76Z"/>
    <path class="cls-2" d="M31.62,34.41c0-.79,0-1.28-.05-1.86h1.14l.07.84h0a1.77,1.77,0,0,1,1.58-1,1.45,1.45,0,0,1,1.46,1h0a2.23,2.23,0,0,1,.68-.77,1.81,1.81,0,0,1,1-.25c1,0,1.7.76,1.7,2.49v4.53h-1.3V35.2c0-.87-.12-1.67-.88-1.67-.42,0-.77.34-.92.92a2.56,2.56,0,0,0,0,.58v4.43h-1.3V35c0-.69-.11-1.45-.86-1.45-.41,0-.8.33-.93,1a2.43,2.43,0,0,0-.06.57v4.38h-1.3Z"/>
    <path class="cls-2" d="M43.4,35.19v1h-3v-1Z"/>
    <path class="cls-2" d="M44.56,29.61h1.31v9.85H44.56Z"/>
    <path class="cls-2" d="M48.8,30.75a.74.74,0,1,1-.74-.8A.73.73,0,0,1,48.8,30.75Zm-1.38,8.71V32.55h1.31v6.91Z"/>
    <path class="cls-2" d="M50.19,34.41c0-.79,0-1.28,0-1.86h1.14l.06.82h0A1.81,1.81,0,0,1,53,32.44c1.05,0,1.72.8,1.72,2.43v4.59H53.39V35c0-.76-.15-1.5-.88-1.5-.42,0-.81.33-.94,1a2.65,2.65,0,0,0-.07.62v4.32H50.19Z"/>
    <path class="cls-2" d="M57.15,36.26c0,1.83.78,2.26,1.58,2.26a2.82,2.82,0,0,0,1.2-.25l.19.94a3.77,3.77,0,0,1-1.62.33c-1.72,0-2.63-1.32-2.63-3.45s1-3.65,2.45-3.65,2.08,1.4,2.08,3.1a6.45,6.45,0,0,1,0,.72Zm2-.95c0-1.25-.42-1.88-1-1.88-.7,0-1,1-1.06,1.88Z"/>
</svg>