<svg xmlns="http://www.w3.org/2000/svg" viewBox="0 0 65 55">
    <defs>
        <style>.cls-1{fill:#fff;}.cls-2{fill:rgb(6, 70, 107);}</style>
    </defs>
    <path class="cls-1" d="M20.38,52.48V48.65h-.55v-.53h.55v-.29A1.5,1.5,0,0,1,22,46.17a1.72,1.72,0,0,1,.85.21l-.15.54a1.72,1.72,0,0,0-.72-.17c-.7,0-.88.49-.88,1.15v.22h2v4.36h-.69V48.65H21.07v3.83Z"/>
    <path class="cls-1" d="M24,46.25h.69v6.23H24Z"/>
    <path class="cls-1" d="M25.72,49.25c0-.52,0-.78,0-1.13h.61l0,.54h0a1.07,1.07,0,0,1,1-.61.92.92,0,0,1,.92.66h0a1.39,1.39,0,0,1,.43-.49,1,1,0,0,1,.6-.17c.59,0,1,.43,1,1.54v2.89h-.69V49.75c0-.57-.08-1.12-.6-1.12-.29,0-.54.24-.64.65a1.63,1.63,0,0,0,0,.39v2.81h-.69V49.62c0-.48-.08-1-.6-1-.28,0-.56.24-.64.71a1.46,1.46,0,0,0,0,.37v2.77h-.69Z"/>
    <path class="cls-1" d="M33.46,47a.4.4,0,0,1-.42.45.41.41,0,0,1-.4-.45.42.42,0,0,1,.41-.45A.41.41,0,0,1,33.46,47Zm-.75,5.49V48.12h.69v4.36Z"/>
    <path class="cls-1" d="M34.37,49.25c0-.52,0-.78,0-1.13h.61l0,.52h0a1.11,1.11,0,0,1,1-.59c.6,0,1,.44,1,1.5v2.93h-.69V49.67c0-.52-.1-1-.6-1-.3,0-.57.25-.66.71a2.21,2.21,0,0,0,0,.39v2.75h-.69Z"/>
    <path class="cls-1" d="M40.28,47v1.16h.83v.53h-.83v2.59c0,.56.2.71.45.71l.28,0,0,.53a1.39,1.39,0,0,1-.51.07.91.91,0,0,1-.69-.26,1.6,1.6,0,0,1-.26-1.1V48.65h-.53v-.53h.53v-1Z"/>
    <path class="cls-1" d="M42.47,47a.4.4,0,0,1-.42.45.41.41,0,0,1-.4-.45.42.42,0,0,1,.41-.45A.41.41,0,0,1,42.47,47Zm-.75,5.49V48.12h.69v4.36Z"/>
    <path class="cls-1" d="M43.38,49.25c0-.52,0-.78,0-1.13H44l0,.54h0a1.07,1.07,0,0,1,1-.61.9.9,0,0,1,.91.66h0a1.39,1.39,0,0,1,.43-.49,1,1,0,0,1,.6-.17c.59,0,1.05.43,1.05,1.54v2.89H47.3V49.75c0-.57-.08-1.12-.61-1.12-.29,0-.54.24-.63.65a1.63,1.63,0,0,0,0,.39v2.81h-.69V49.62c0-.48-.09-1-.6-1-.29,0-.57.24-.65.71a2.13,2.13,0,0,0,0,.37v2.77h-.68Z"/>
    <path class="cls-1" d="M49.45,50.36c0,1.34.53,1.62,1,1.62a1.56,1.56,0,0,0,.72-.17l.11.51a2.16,2.16,0,0,1-1,.21c-1,0-1.58-.85-1.58-2.19s.6-2.29,1.46-2.29S51.48,49,51.48,50c0,.17,0,.29,0,.39Zm1.36-.51c0-.87-.31-1.26-.64-1.26s-.69.66-.72,1.26Z"/>
    <path class="cls-1" d="M52.22,46.25h.69v6.23h-.69Z"/>
    <path class="cls-1" d="M54.69,47a.4.4,0,0,1-.42.45.41.41,0,0,1-.4-.45.42.42,0,0,1,.41-.45A.41.41,0,0,1,54.69,47Zm-.75,5.49V48.12h.69v4.36Z"/>
    <path class="cls-1" d="M55.6,49.25c0-.52,0-.78,0-1.13h.61l0,.52h0a1.11,1.11,0,0,1,1-.59c.6,0,1.05.44,1.05,1.5v2.93h-.69V49.67c0-.52-.1-1-.6-1-.3,0-.57.25-.66.71a2.21,2.21,0,0,0,0,.39v2.75H55.6Z"/>
    <path class="cls-1" d="M59.73,50.36c0,1.34.53,1.62,1,1.62a1.56,1.56,0,0,0,.72-.17l.12.51a2.19,2.19,0,0,1-1,.21c-1,0-1.59-.85-1.59-2.19s.6-2.29,1.47-2.29S61.77,49,61.77,50a3.68,3.68,0,0,1,0,.39Zm1.37-.51c0-.87-.32-1.26-.64-1.26s-.69.66-.72,1.26Z"/>
    <polygon class="cls-1" points="63.51 16.29 16.82 2.47 1.35 2.47 1.35 13.94 18.13 42.67 63.65 42.67 63.65 16.29 63.51 16.29"/>
    <path class="cls-2" d="M22.79,37V31.09H21.9v-1h.89v-.43a2.46,2.46,0,0,1,2.67-2.63,3.15,3.15,0,0,1,1.43.32l-.25,1a2.81,2.81,0,0,0-1.18-.27c-1.09,0-1.36.72-1.36,1.66v.32h3.19V37H26V31.09H24.1V37Z"/>
    <path class="cls-2" d="M28.76,27.18h1.31V37H28.76Z"/>
    <path class="cls-2" d="M31.62,32c0-.8,0-1.29-.05-1.87h1.14l.07.84h0A1.77,1.77,0,0,1,34.39,30a1.45,1.45,0,0,1,1.46,1h0a2.2,2.2,0,0,1,.68-.76,1.73,1.73,0,0,1,1-.26c1,0,1.7.76,1.7,2.49V37h-1.3V32.77c0-.87-.12-1.67-.88-1.67-.42,0-.77.34-.92.92a2.6,2.6,0,0,0,0,.59V37h-1.3V32.55c0-.69-.11-1.45-.86-1.45-.41,0-.8.34-.93,1a2.56,2.56,0,0,0-.06.57V37h-1.3Z"/>
    <path class="cls-2" d="M43.4,32.76v1h-3v-1Z"/>
    <path class="cls-2" d="M44.56,27.18h1.31V37H44.56Z"/>
    <path class="cls-2" d="M48.8,28.32a.74.74,0,1,1-1.47,0,.73.73,0,0,1,.73-.8A.73.73,0,0,1,48.8,28.32ZM47.42,37V30.12h1.31V37Z"/>
    <path class="cls-2" d="M50.19,32c0-.8,0-1.29,0-1.87h1.14l.06.82h0A1.81,1.81,0,0,1,53,30c1.05,0,1.72.8,1.72,2.44V37H53.39V32.61c0-.75-.15-1.5-.88-1.5-.42,0-.81.34-.94,1a2.68,2.68,0,0,0-.07.63V37H50.19Z"/>
    <path class="cls-2" d="M57.15,33.83c0,1.83.78,2.26,1.58,2.26a2.82,2.82,0,0,0,1.2-.25l.19.95a3.93,3.93,0,0,1-1.62.32c-1.72,0-2.63-1.32-2.63-3.44,0-2.27,1-3.66,2.45-3.66s2.08,1.4,2.08,3.1a6.32,6.32,0,0,1,0,.72Zm2-.95c0-1.24-.42-1.88-1-1.88-.7,0-1,1-1.06,1.88Z"/>
</svg>