<svg  xmlns="http://www.w3.org/2000/svg" viewBox="0 0 85.04 85.04">
<path  d="M66.19,10.4c0,2.85-.14,5,0,7.18a19.59,19.59,0,0,0,1.09,5.33A6.28,6.28,0,0,0,73,26.82V70.28H59.37c-2.17,0-4.35-.07-6.52,0a2.42,2.42,0,0,0-1.71.81C47.83,75.86,37,75.79,33.82,71a2.9,2.9,0,0,0-2.07-.75c-5.89-.05-11.79,0-17.69,0H12V27c5.2-1.75,6.81-4.05,6.76-9.63,0-2.1,0-4.21,0-6.49a16.44,16.44,0,0,1,7.84,2Q34,17,41.11,21.45a2.22,2.22,0,0,0,2.81,0c4.77-2.94,9.55-5.87,14.5-8.48C60.69,11.77,63.34,11.32,66.19,10.4ZM25.27,23.72c.94.44,1.56.69,2.15,1,4,2.28,8,4.63,12.09,6.86a2.39,2.39,0,0,1,1.37,2.44c0,10,0,19.93,0,29.9,0,.51-.18,1.14,0,1.52.35.57.92,1.3,1.5,1.4,1.66.29,1.76-.91,1.76-2.18q0-15.37,0-30.75a2.58,2.58,0,0,1,.85-2c4.22-2.53,8.51-4.93,12.8-7.36.52-.29,1.1-.5,1.9-.85,0,1.42-.09,2.56,0,3.69a2.92,2.92,0,0,1-1.39,2.86q-4,3-7.73,6.28a3.25,3.25,0,0,0-1,2.14c-.09,4.23,0,8.47,0,12.71,0,.53.09,1.07.15,1.83,1.56-.41,2.87-.78,4.19-1.11a1.94,1.94,0,0,0,1.58-2.11c0-1.89.19-3.78.29-5.66.13-2.34,1.39-3.72,3.86-4.19,0,5.15,0,10.29,0,15.43A2.17,2.17,0,0,1,58.72,57c-2.62,2-5.28,4-7.91,6a17.43,17.43,0,0,0-1.57,1.53l.31.45a6.32,6.32,0,0,0,1.4-.29c4-1.77,7.93-3.59,11.89-5.36a2,2,0,0,0,1.25-2.17c0-13.46,0-26.92,0-40.38,0-1.92-.16-2-1.94-1.36a56.92,56.92,0,0,0-18,10.8c-.49.45-1,.88-1.61,1.4A56.49,56.49,0,0,0,21.19,14.86C21.11,15.6,21,16,21,16.38,21,30,21,43.63,21,57.26a2,2,0,0,0,1.35,2.12c3.86,1.73,7.71,3.5,11.58,5.23a11,11,0,0,0,1.55.41l.31-.46a12.68,12.68,0,0,0-1.38-1.45c-2.58-2-5.17-4-7.81-5.9a2.81,2.81,0,0,1-1.29-2.57c.07-3.38,0-6.76,0-10.14V39.93c2.34,1,4.1,2.07,4,4.79a42,42,0,0,0,.27,5.49c.06.55.37,1.39.78,1.55,1.55.63,3.19,1,4.83,1.53a5,5,0,0,0,.29-1c0-4.7,0-9.39,0-14.09a2.67,2.67,0,0,0-1-1.63C31.72,34.35,29,32.2,26.29,30a2.74,2.74,0,0,1-1-1.62C25.17,26.93,25.27,25.5,25.27,23.72Z"/>
<path  d="M66,85H19.05A19.06,19.06,0,0,1,0,66V19.05A19.06,19.06,0,0,1,19.05,0H66A19.06,19.06,0,0,1,85,19.05V66A19.06,19.06,0,0,1,66,85ZM19.66,5A14.72,14.72,0,0,0,5,19.66V65.38a14.72,14.72,0,0,0,14.7,14.7H65.38a14.72,14.72,0,0,0,14.7-14.7V19.66A14.72,14.72,0,0,0,65.38,5Z"/></svg>