
<svg 
	 xmlns="http://www.w3.org/2000/svg" xmlnsXlink="http://www.w3.org/1999/xlink" x="0px" y="0px" viewBox="0 0 56.7 90.8"
	 style="enable-background:new 0 0 56.7 90.8;" xmlSpace="preserve">
<g id="g7945" transform="matrix(4.613338,0,0,4.613338,-555.78109,-2683.5231)">
	<path d="M132.7,588.4L132.7,588.4C132.7,588.4,132.7,588.4,132.7,588.4c-0.1-0.1-0.1-0.3-0.2-0.3c0.1-0.1,0.1-0.1,0.1-0.1
		c0.1,0,0.1-0.1,0-0.1c0-0.1-0.1,0-0.1-0.1c0.1-0.1-0.1-0.1-0.1-0.1c0.1-0.1-0.1-0.2-0.1-0.3c-0.1,0-0.2,0-0.3-0.1l0.1-0.1
		c-0.1-0.1-0.2-0.2-0.4-0.1c-0.1,0.1-0.1,0-0.1,0c-0.1,0-0.2-0.1-0.3-0.1c-0.7-0.1-1.2,0.3-1.8,0.6c-0.1-0.1-0.2,0-0.4-0.1
		c-0.3,0-0.6-0.1-0.9-0.2c0,0,0,0,0,0c0,0,0,0,0,0c-0.1,0-0.3-0.1-0.4-0.1l-0.4-0.1c-0.1,0-0.2,0.1-0.3,0h-0.1c0-0.1-0.1,0-0.1-0.1
		c-0.5-0.2-1-0.4-1.4-0.7c0.1-0.3,0.3-0.6,0.6-0.8c0.1-0.2,0.3-0.4,0.5-0.5c0-0.1,0.1-0.3,0.3-0.4c0.1,0-0.1-0.1,0-0.1
		c0.1,0,0.2-0.2,0.4-0.3c0.1-0.1,0.4-0.1,0.5-0.4c0-0.1,0.1-0.2,0.2-0.3l0.1-0.4c-0.1,0-0.1,0.1-0.1,0.1H128
		c0.1-0.1-0.1-0.4,0.1-0.5c0.1-0.1,0-0.1,0-0.2c-0.1-0.1,0.1-0.3,0-0.4c-0.1-0.1-0.1-0.1-0.2-0.1c-0.1-0.1-0.3-0.1-0.4,0
		c-0.2,0-0.4,0.1-0.6,0.1c-0.1,0-0.2,0-0.3,0.1c-0.1,0-0.2-0.1-0.4,0c0-0.1-0.1-0.1-0.1-0.1c-0.1,0.1-0.1-0.1-0.3-0.1
		c-0.1-0.1-0.1-0.1-0.2-0.1l0.1-0.1c0-0.1,0.1-0.1,0.1-0.2c-0.4-0.1-0.7,0-1.1,0c-0.4,0.1-0.7,0.3-1.1,0.3c-0.2,0-0.4,0.1-0.6,0
		c-0.1,0.1-0.2,0.1-0.3,0.1l-0.1-0.1c-0.1-0.1-0.1,0-0.2,0c0-0.1,0-0.1-0.1-0.1c-0.1,0-0.1,0.1-0.1,0.1h-0.1c-0.1-0.1,0-0.1,0-0.2
		c0,0,0,0-0.1,0c0-0.1,0.1-0.1,0.1-0.2c-0.1,0-0.3,0.1-0.4,0.3c-0.1,0-0.1,0.1-0.1,0.1h0.1c0,0.1-0.1,0.2-0.2,0.3
		c0,0.1-0.1,0.1-0.1,0.2c0,0.1,0.1,0.1,0.1,0.1l-0.1,0.1c0,0.1,0.1,0.1,0.1,0.1c0,0.1-0.1,0.1-0.1,0.1h0.1c-0.1,0.1,0.1,0.1,0.1,0.3
		c0.1,0.1,0.2,0.3,0.4,0.4c0.1,0,0.1,0.1,0.1,0.1c0.1,1,0.1,2,0.5,2.9c0,0.4-0.1,0.8-0.1,1.3c0,0.2-0.1,0.4-0.1,0.6
		c0,0.1,0.1,0.1,0.1,0.1c0,0.4,0.1,0.8,0.2,1.1c-0.1,0.4-0.4,0.7-0.5,1.1c-0.1,0.4-0.4,0.6-0.4,1l-0.1,0.1c-0.1,0.3-0.3,0.6-0.3,0.8
		c-0.1,0.2-0.3,0.4-0.1,0.6c-0.1,0.1-0.2,0.1-0.3,0.2c0,0.3,0,0.6,0.1,0.9c0.1,0.6,0.4,1.2,0.6,1.7l0.1,0.1c0.1,0.2,0.2,0.4,0.3,0.6
		c0.1,0.1,0.2,0.4,0.4,0.5c0,0-0.1-0.1-0.1,0c-0.1,0.1-0.2,0.2-0.4,0.4c-0.4,0.4-0.8,0.8-1.3,1.2c-0.1,0.3-0.1,0.7-0.3,1.1
		c0,0.1,0,0.2,0,0.2c0,0.1,0,0.1,0,0.2c0,0.1,0,0.1,0,0.2c0,0,0,0,0,0h0.1c0.1,0.1,0.1,0.1,0.1,0.2c0.1,0,0.1,0.1,0.1,0.1
		c0.1,0.1,0.2,0.1,0.4,0.2c0.1,0.1,0.1,0.1,0.1,0.3c0.1-0.1,0.2,0.1,0.3,0.1c0.1,0,0.1-0.1,0.2-0.1s0.2-0.1,0.4-0.1
		c0.1,0,0.1,0.2,0.1,0.1c0-0.1,0.1-0.2,0.3-0.2l0.1,0.1c0.1,0.1,0.2,0.1,0.3,0.1l-0.1-0.1c0.1,0,0-0.1,0.1-0.1h0.7l0.5,0.1
		c0.1,0,0.1,0.1,0.1,0.1c0.1,0,0.1-0.1,0.1-0.1s0.1-0.1,0.1-0.1c0.1,0.1,0.1-0.1,0.1-0.1c0.1-0.1,0.2,0,0.4,0
		c0.1-0.3,0.2-0.6,0.1-0.9c0-0.1-0.1,0-0.2-0.1c-0.4-0.1-0.8-0.2-1.1-0.2c0,0,0,0,0-0.1l0.9-0.8l0.6-0.6c0-0.1,0-0.2,0.1-0.3v-0.2
		c0.1,0,0.1,0.2,0.3,0.3l-0.3,0.6c0.1,0.4,0,0.8,0.1,1.1c0.1,0.1,0,0.4,0.1,0.5c-0.1,0-0.1,0-0.1,0.1c0.1,0.1,0.2,0.1,0.3,0.1
		c0.2-0.1,0.1,0.1,0.3,0.1v0.1h0.1c0.1,0,0.1,0.1,0.1,0.1c0.1,0.1,0.2,0,0.3,0.1c0,0.1-0.1,0.1,0,0.1h0.3c0.6,0.1,1.3,0,2,0.1
		c0.1,0,0.1,0.1,0.2,0.1c0.1-0.1,0.1-0.1,0.1-0.2h0.3c0.1,0,0.1,0.1,0.1,0.1c0.1-0.1,0.1-0.3,0.1-0.4c0-0.1,0.1-0.4,0-0.5
		c-0.1-0.1-0.2-0.2-0.4-0.2c-0.2-0.1-0.6-0.1-0.8-0.1c-0.1,0.1-0.3,0-0.4-0.1c-0.4-0.4-0.1-1.1-0.2-1.5c0-0.4-0.1-0.7-0.1-1.1v-0.1
		h0.1c0.1,0.1,0.1-0.1,0.1-0.1l-0.3-0.4c-0.1-0.1,0-0.1-0.1-0.1c-0.1-0.1-0.1-0.4-0.3-0.3l-0.4-0.5c-0.5-0.5-0.8-1.1-1.1-1.5h-0.1
		v-0.1h-0.1c0-0.1-0.1-0.3-0.2-0.4l0.4-0.7h0.1c0.1-0.4,0.3-0.6,0.5-0.9c0.1-0.1,0.1-0.2,0.2-0.4l0.1-0.6c0.1-0.3,0.1-0.6,0.3-0.8
		v-0.1c0.1-0.2,0.4-0.4,0.6-0.6c0.1,0,0.1,0.1,0.2,0.1s0.1,0,0.1,0.1v-0.1l0.1,0.1v0.1c0.1,0.1,0.1-0.1,0.3-0.1v-0.1
		c0.1,0.1,0.1,0,0.2,0.1c0.7-0.1,1.3-0.1,2-0.3c0.1,0.1,0.3,0.1,0.4,0.1c0.1,0,0.1-0.1,0.1-0.1c0.1-0.1,0.1-0.1,0.2-0.2
		c0.2,0.1,0.4-0.1,0.5-0.1c0.2-0.1,0.4-0.2,0.6-0.3C132.6,588.5,132.7,588.5,132.7,588.4C132.7,588.4,132.7,588.4,132.7,588.4z"/>
	<path d="M129,587.4l0.1-0.1c0.1,0,0.1-0.2,0.2-0.2c0.1,0.1,0.2,0,0.3-0.1l-0.2,0.3c0.2-0.1,0.3-0.3,0.4-0.4c0-0.1,0-0.2,0.1-0.3
		c0.4,0,0.8-0.1,1.1-0.3c0,0.1,0.1,0.1,0.1,0s0.1-0.1,0.1-0.1c0.1,0,0.1-0.1,0.1-0.1V586c0.1-0.1,0.1-0.3,0.1-0.4l0.2-0.1
		c0.1-0.1-0.1-0.1-0.1-0.2c0.1-0.1,0.1-0.1,0.1-0.1c0-0.1-0.1-0.1-0.1-0.1c-0.1-0.1,0-0.1,0-0.2s-0.1-0.1-0.1-0.1c0,0,0,0,0,0
		c-0.1,0-0.2-0.1-0.3,0.1c-0.3,0-0.5,0.1-0.8,0.1c-0.4,0.1-1,0-1.1,0.5c-0.2,0.1-0.4,0.4-0.6,0.5c-0.5,0.3-0.8,0.7-1.2,1.1
		c0.1,0,0.1-0.1,0.2-0.1c0,0,0,0.1,0,0.1c0.1,0,0-0.1,0.1-0.1h0.1c-0.1,0.1,0,0.1-0.1,0.1h0.1l0.1-0.1h0.1c0,0,0-0.1,0.1-0.1
		c0,0.1,0,0.1,0,0.1c-0.1,0,0,0,0,0.1c0.1,0.1,0.1,0,0.1,0s0,0.1,0.1,0.1c0-0.1,0,0.1,0.1,0c0.1,0.1,0.1,0.1,0.1,0.1c0,0,0,0,0,0
		C128.6,587.3,128.8,587.4,129,587.4z"/>
</g>
</svg>
