
<svg version="1.1" id="圖層_1" xmlns="http://www.w3.org/2000/svg" xmlns:xlink="http://www.w3.org/1999/xlink" x="0px" y="0px"
	 viewBox="0 0 85 46.4" style="enable-background:new 0 0 85 46.4;" xml:space="preserve">

<g id="surface1">
	<path class="st0" d="M42.5,45.2c-21.7,0-40.3-10-40.3-22S21.2,1,42.5,1c21.7,0,40.2,10.3,40.2,22.2S64,45.2,42.5,45.2 M42.5,0
		C18.9,0,0,10.5,0,23.2s18.7,23.2,42.5,23.2C66.2,46.4,85,35.9,85,23.2C85,10.5,66.1,0,42.5,0"/>
	<path class="st0" d="M63.8,24.5c0-0.5,0.5-0.8,0.8-1.1c1.4-1.1,1.6,0,1.6,0C65.5,23.9,64.6,24.4,63.8,24.5 M59.3,21.4
		c-0.5,0.8-0.1,1.8-0.7,2.6l-4.1-0.5c2.4-0.8,4.3-2.5,5.5-3.1L59.3,21.4z M30.3,20.8c-0.3-0.2-0.1-0.5,0-0.7c0.1-0.1,1-1.8,1.9-1.4
		C32.4,19.2,30.9,20.9,30.3,20.8 M74.6,20.3c-1.3,0.3-2.5,0.7-3.8,1c-0.8,0.2-1.6,0.5-2.5,0.6H68l0.1-0.2c0.1-0.1,0.2-0.2,0.4-0.4
		c1.3-1.2,2.6-2.3,4-3.5c0.4-0.5,1.3-0.8,1-1.7c-0.3-0.1-1,0.1-1.3,0.3c-2.5,1.3-4.9,2.8-7,4.8c-0.1,0.1-0.1,0.1-0.2,0.2
		c-1.2,0.9-1.4,3.1-3.3,2.9c-1.1-0.1-1.3-0.1-1.8-0.2c1.8-1.4,5.4-6.2,5.7-7.3c0,0,0.3-1-0.1-1c-1.7,0.6-3.3,2.1-4.6,3.2
		c0.1-0.6,1-1.7,0.6-2.3c-3,0.6-7.1,4.6-7.1,4.6c-0.8,0.5-1.1,2.2-2.3,1.9c-0.8-0.1-1.7-0.1-2.2-0.4c0.8-0.5,1.5-1,2.3-1.6
		c1.7-1.3,3.3-2.8,4.9-4.2c0.1-0.2,0.6-0.4,0.3-0.7c-0.5-0.4-1.1,0.2-1.7,0.3c-2.5,1.1-4.3,2.6-5.9,4.7c-0.3,0.4-0.8,0.9-1.1,1.3
		c-1.2-0.1-1.8-0.1-2.4-0.5c0.3-0.3,0.7-0.6,1.1-0.9c1.9-1.6,4-3.1,5.5-5.4c-0.1-0.8-0.9-0.1-1.3,0c-2.7,1.3-4.9,3-6.6,5.5
		c-0.1,0.2-0.2,0.3-0.3,0.5c-1.2,0-2.2-0.3-3.2-0.5c0,0,0,0-0.1,0v-0.1c2.6-1.3,4.9-3.6,6.6-6.2c0,0,1.5-2.6-1.7-0.5
		c-2.4,1.5-4.6,3.6-6.1,6.5c0,0-1.6,0.1-1.6-0.1c1.6-1.9,3.4-4.4,4.3-6.9c0.1-0.4,0.3-1.2-0.2-1.3c-2.2,0.9-3.6,3.4-4.8,5.8
		c-0.3,0.7-0.6,1.6-0.9,2.3c-1.5-0.1-2.4,0.1-3.8-0.3c1.7-1.5,3.7-2.8,5.2-4.6c0.3-0.5,2.1-1.7,2-3.3c-0.6-0.3-1.1,0.1-1.5,0.3
		L34,16.9h-0.2c0.8-1.4,2.5-3.4,3.2-4.9c0.2-0.5,0.5-0.9,0.5-1.5L37,10.4c-3.5,1.5-6.6,5-7.8,9.5c-0.3,0.4-0.4,1.2-1,1
		c-0.1-1.2-0.5-2.3-0.9-3.4c-1.5-3.2-3.7-5.5-6.4-7.2c-0.5-0.2-0.7,0.2-0.6,0.6c0.4,2.2,1.8,3.6,2.7,5.3c1.1,1.7,2.6,3.3,4,4.9
		c-0.5,0.1-10.5,2.5-12.3,4c-0.9,0.5-2.4,1.7-2.4,4.3c0.1,0.8,0.6,1.5,1.3,1.8c0.7,0.1,1.1,0.1,1.5-0.1c1.8-2.4,4-4.5,6.4-5.9
		c1.6-0.9,2.9-1.7,4.7-1.9c0.8,0.7,1.3,1.7,2.4,2.6c2.1,1.9,3.9,3.2,6.8,3.7l0.3-0.1L35.6,29c-1.6-2.2-3.9-3.6-6.3-4.8
		c-0.4-0.3-1.4-0.8-1.5-1.5c1.5-0.5,3.4-0.6,5.2-0.2c2.1,3.7,4.5,7.7,7.8,10c0.2,0.1,0.4-0.3,0.3-0.5c-2.3-5.7-3.9-6.2-6.3-8.9
		c-0.1-0.2-0.3-0.7,0-0.8l2.3,0c0.7,0.1,1.7-0.1,1.9,0.2c0.1,3.8,2.5,6.7,4,9.5c0,0,0.5,0.3,0.5-0.2v0c-0.6-6.6-3.1-8.2-3.5-9.3
		c0.4,0,0.8,0,1.1,0.2c1.6,3.2,3.7,5.6,6.6,7.5c0.1,0,0.4,0.1,0.2-0.4c-0.8-2.7-3.4-4.2-5-6.3L42.7,23l0.3,0
		c0.7,0.1,1.7,0.3,2.2,0.6c0.9,1.8,2.2,3.2,3.5,4.5c1.1,1,2.1,2.2,3.8,2.5l0.2,0l0-0.1l0-0.2c-1-2.7-3.9-3.9-5.8-5.8
		c-0.1-0.1-0.4-0.6,0-0.7l3.2,0.5c4.8,6.4,6.7,6.2,6.7,6.2s1.5,0.3,0.8-0.7c-1.6-1.6-3-2.4-4.8-3.9c-0.3-0.3-1.2-0.9-1.1-1.5
		c0.7,0.1,0.8,0.1,2.2,0.2c0.5,0.1,1,0.1,1.4,0.3c2.5,1.1,2.7,4.7,8.9,5.4c0.2,0,0.3-0.3,0.1-0.5c-1.7-1.4-6.3-4.4-6.6-4.8
		c0.6,0,3,0.4,3.4,0.6c3.1,1.7,5,2.9,9.4,2.3c0.4-0.6-0.2-0.8-0.8-1l-2.5-1c-0.3-0.1-1.7-0.4-2.2-0.5c2.6-0.8,6.1-1.8,8.4-3.2
		c0.4-0.3,0.8-0.5,1.1-0.8c0.2-0.2,0.5-0.5,0.6-0.8C75.2,20.2,74.6,20.3,74.6,20.3"/>
</g>
</svg>
