
<svg version="1.1" id="圖層_1" xmlns="http://www.w3.org/2000/svg" xmlns:xlink="http://www.w3.org/1999/xlink" x="0px" y="0px"
	 viewBox="0 0 85 72.1" style="enable-background:new 0 0 85 72.1;" xml:space="preserve">

<g id="surface1">
	<path class="st0" d="M75,68.1l-12.2,0.1l0-4.7l5.5,0l0,1.7h-1l0-0.5h-3.2v2.4h10.2c1.6-6.3-2.3-20-5.1-24.8l-4.6,2.2l-4.1-4.1
		l-3.3,1.2l-7-2.1c1.4,2.6,2.8,5.8,1.9,8.1c-0.5,1.2-2.1,2.2-3.6,2.6L48,49c1.2-0.5,2.5-1.3,3-2.6c0.3-1,0-3.3-2.3-7.4L48,37.5
		l9.5,2.7l3.6-1.3l3.8,3.8l4.7-2.4c4.2,4.5,7.5,20.9,5.5,27.5L75,68.1z"/>
	<path class="st0" d="M38.5,68.7H33c0,0,2.1-8.2,2-9.2c2.3,0.6,12.1,0.8,15.2-0.1c-2.4,1.9-4.7,7.1-5.3,9.1H40
		c0.2-1.4,0.8-5.7,0.8-5.7h1.1l-0.5,4.3l2.4,0c1.1-3,2.4-5.2,3.2-6.2c-2.3,0.6-8.7,0.2-10.6,0c-0.2,0.5-1.5,6.4-1.5,6.4l2.6,0l1-4.5
		l1.2,0.1L38.5,68.7z"/>
	<path class="st0" d="M60.2,68.4H49.9c0.8-2.7,4.3-8.1,7.6-9.1l0,1.3c-2.5,1.2-5.2,4.5-5.8,6.6l7.4,0l0-2.6H56l0,1l-1,0l0-2.1l5.3,0
		V68.4z"/>
	<path class="st0" d="M39.7,41.6L39.7,41.6l-0.2-0.3L39.7,41.6z"/>
	<path class="st0" d="M5.8,54.1L7,55.2l3.6-3.7l6.7-0.3l1.9-2.2l6.9-0.2l0.2,5.9l-4.7,6.1L20.5,60l4.4-5.6l-0.2-4.1l-4.9,0l-1.4,2.1
		l-7.3,0.1L6.8,57l-2-1.8L5.8,54.1z M1.9,55.2l5.1,4.9l5.2-5.7l7.3-0.1l1.6-2.1l2.2,0l0.1,1.2l-5.4,6.8l4.2,3.3l6-7.6l5.7-4.2
		c2,2.5,5.1,3.2,9.6,3.1c7-0.2,11.3-2.6,12.5-8.6l1.6,0.6c-1,9.9-13.2,11.5-25.4,8.6c0,5.3-1.6,10.9-5,16.7h50.7
		c1.5-1.9,3.4-8.6,4.5-12.1c1.4-4.4,2.6-12.5,2.8-17.2c0.5-9.8-1.6-22.3-10.5-27.6l-5,4.1L66.5,18l1.9-7.3C60.7,7.3,46.6,7.1,41,7.3
		L35.3,0l-2.1,14.2l1.8,1.7l-3.8,3.8L30,19l-7,3.9l-0.7,4l-5.8,7.2l1.7,1.3L15,36.2l-5,6.2L8.2,41L0,49.8l3.7,3.7L1.9,55.2z
		 M59.2,17.4c1.7,0.3,8.6,3,10.2,4.2c1.6-1.2,5-3.7,5-3.7s3.6,3.4,5.4,6.5c1.1,1.9,2.6,5.2,3,8.9c0.4,3.7,0.4,6.7,0.2,9
		c-0.5-1.8-2.7-8.8-4.1-10c0.4-1.2,1.2-4.8,1.2-4.8L74,20.3l-4.4,2.8c0,0-7.8-3.7-11-4.3C58.8,18.4,59.1,17.9,59.2,17.4z M59.6,20.2
		c0.7,0,10,4.3,10,4.3l4.3-2.7l4.7,5.9l-1.2,5c1.4,1.4,5.3,10.8,5.1,13.8c-0.1,1.6-0.5,4.5-0.9,5.6C81,49.5,78.4,37.7,74.8,33l1.3-5
		l-3.2-4.3l-5.1,3.7l3.4,4.6l1.3-3.7l-1.7,1.1l-1.3-1.8l3.1-2.2l2.2,2.9l-1.4,5c3.1,5.8,7.5,18.2,7.2,23.1c0,0-0.9,3.9-1.7,6.2
		c0-4.9-1.2-13.3-3.5-18.7c-1.2-2.9-4.6-9.8-6.4-12.5C67.2,28.8,62.4,23.2,59.6,20.2z M50.2,9.4C51.6,8.9,66,11.6,66,11.6l-0.6,2.2
		c-2.1-0.6-11-1.8-14.2-1.7C50.9,11.1,50.5,10.2,50.2,9.4z M42.7,11.8l-1.4-2.4l6.9,0c0,0-1.9,1.8-2.3,2.3L42.7,11.8z M40,12l-3.1,3
		l-1.5-1.8l1.4-7.9l4.4,6.6L40,12z M45,13c-1.7,2.6-3.9,9.4-3.9,12.4h1.5c0.3-5.4,2.7-10.6,3.8-11.9c0.8-1,1.4-1.6,1.9-1.9
		l-2.1,10.2h1.2l2.2-10.1c0.9,1.6,0.8,5.8,0.7,7.4h1.3c0.1-1.5-0.1-4-0.3-5.9c3.5-0.1,10.6,1,13.8,1.9l-0.5,2.2l-6.1-1.7L57,19.2
		c0,0,6,6.8,8.2,9.8c2.2,3,6.7,9.9,8.7,15.2c2.9,7.5,3.8,12.1,2.7,25.7H47.8c0.3-2,1.2-4.4,3.3-7.3c2.2-3.1,5-4.8,6.3-5.3v-1.5
		c-2.6,0.3-6.4,4.8-7.4,6.1c-1.8,2.5-3.2,5.4-3.7,8l-15.9,0c1.4-2.8,3.2-9.8,3.1-12c3,0.8,14.5,1.3,18.4-0.7
		c4.4-2.2,7.4-4.8,7.7-11.7l-5.4-1.6c-0.5,6.7-5.1,8.9-11.4,9.1c-6,0.2-7.3-1.9-7.9-2.5c-1.8-1.9-2.8-4.9-3.3-6.2l5.3-4.8l1.1,2
		L34,45.1l1.7,3.4c0.3,0.6,0.9,1.3,1.6,1.5c0.7,0.2,1.1,0.4,2.5-0.3c1.4-0.7,8-3.8,8-3.8l-3.8-9.2l-6.1-1.4l8.6-6.1l6.6,8.1l8.6-6.8
		l3.5,5.1l-1.7,1.2l-1.6-2l-0.9,0.7l2.5,3.1l3.4-2.5l-4.9-7.2l-8.4,6.6l-6.7-8.1l-11.9,8.6l7.9,1.9l3,7.6l-4.8,2.4
		c-1.2,0.7-2.9,1.5-3.6,1.3c-0.4-0.1-0.7-0.8-0.9-1.1l-1.2-2.5l3.3-3l1.6,2.7c-0.2,0.2-0.6,0.6-0.9,0.7c-0.3,0.1-1-0.3-1.3-0.6
		l-0.6,0.8c0.5,0.4,1.2,0.8,1.7,0.8c0.1,0,0.4,0,0.6,0c1-0.2,2.1-1.5,2.1-1.5l-4.7-7.7L30.1,44c0.7,2.2,1.6,3.8,2.7,5.9l-5.1,3.6
		l-0.3-5.9h-8.5L16.9,50l-6.9,0.4L7,53.3L3,49.8l5.3-5.8l2.3,2.3l-3.5,3.7l-0.7-0.6l2.8-2.9l-0.9-1l-3.8,4l2.5,2.3l6.2-6.4l-1.5-1.7
		l4.6-5.7l3.8-1.2l1.7,1l2.7-3.5l3.8,2l6.6-5.6l-0.8-1.2l-6,5.2l-4.1-2.2l-2.3,3.1l-2.4-1.8l4.6-5.9l0.7-3.7l5.5-3l3.1,2
		c-0.6,3.3-1,6.7-6.7,5.9c5.1,2.5,7.2-1.4,8.2-4.9l2.9,1.7l0.7-1.1l-6-3.7L41,13H45z"/>
	<path class="st0" d="M32.6,25.9c0,1.5-1.2,2.8-2.8,2.8c-1.5,0-2.8-1.2-2.8-2.8c0-1.5,1.2-2.8,2.8-2.8
		C31.3,23.1,32.6,24.3,32.6,25.9z"/>
</g>
</svg>
