<svg version="1.1" id="圖層_1" xmlns="http://www.w3.org/2000/svg" xmlns:xlink="http://www.w3.org/1999/xlink" x="0px" y="0px"
	 viewBox="0 0 85 156.5" style="enable-background:new 0 0 85 156.5;" xml:space="preserve">

<path class="st0" d="M75.7,133.5c2.7,4.2,4,9,6.1,13.4c0.9,1.9,1.6,3.9,2.4,5.8c1.4,3.6,1.4,3.6-2.3,3.7c-3.4-0.4-6.9-0.3-10.3,0
	c-23.1,0-46.3,0-69.4,0c-0.6-0.6-1.6,0.2-2.2-0.6c0.7-3.5,2.3-6.8,3.6-10.1c1.5-3.8,3.4-7.4,4.9-11.3c0.1-0.4,0.5-0.7,0.8-1
	c2.5-0.6,5.1-0.1,7.7-0.3c1.4-0.1,2.8,0.3,4.1-0.2c1.2-2.9,3.5-4.1,6.4-4.5c0.7-0.3,1.6,0.1,2.3-0.3c2.4,0.2,4.6-0.2,6.3-2.2
	c0.5-0.6,0.9-1.3,0.8-2.2c0.3-1.4,0.3-2.8,0-4.2c0-1-0.1-2-0.1-3c-0.3-0.7,0.1-1.6-0.3-2.3c-0.6-4-1.3-7.9-1.9-11.9
	c-0.2-3.7-0.2-7.3,0-11c0-0.4,0.1-0.9,0.1-1.3c0.3-1.1,0.3-2.2,0-3.2c-0.8-3.3-1.5-6.7-2.4-10c-0.4-1.5,0-3.1-0.4-4.6
	c-0.2-3.1-0.2-6.2,0-9.3c0.2-1.9,0.5-3.7,1-5.5c0.2-0.8,0.5-1.9-0.8-2.1c-2.7-0.4-3.6-2.5-4.2-4.7c-1.9-6.5-3.3-13-3.1-19.8
	c0.1-4.5,2.2-6.3,5.4-7.6c2-0.8,4.1-1.5,5.8-2.7c1.4-1,2.1-2.3,1.4-4.1c-0.7-1.8-1.1-3.7-1.2-5.7C35.9,10,36.3,9,35.8,8.2
	c0-0.3,0-0.6,0-0.8c0.5-0.7,0-1.5,0.3-2.2c0.2-3.1,2.1-4.5,5-5c1-0.2,2-0.2,3.1,0c2.8,0.6,4.2,2.4,5,5c0.2,1.8,0.2,3.5,0,5.3
	c-0.5,1.9-0.9,3.8-1.4,5.7c-0.6,2.2,0.1,4.1,2.1,5.1c2.3,1.2,4.7,2.3,7.1,3.3c2.7,1.2,3.5,3.6,3.7,6.2c0.1,2,0,4.1,0,6.2
	c-0.5,0.7,0,1.5-0.3,2.2c-0.9,3.7-1.9,7.3-2.7,11c-0.6,2.4-1.6,4.3-4.2,5.1c-0.8,0.2-1.4,0.9-0.9,2.1c0.4,1,0.5,2.1,0.7,3.2
	c0.3,0.7-0.1,1.6,0.3,2.3c0,1.8,0.1,3.5,0.1,5.3c0.2,1.9,0.2,3.8,0,5.7c-0.8,3.6-1.5,7.2-2.5,10.7c-0.3,1.2-0.3,2.3-0.3,3.4
	c-0.4,1.2-0.3,2.4,0,3.7c0,0.3,0.1,0.5,0.1,0.8c0.2,3.1,0.2,6.2,0,9.2c-0.9,4.8-2,9.6-2.4,14.5c-0.3,2.7-0.3,5.5,0,8.2
	c0.5,2.7,1.9,3.7,5.3,3.9c1,0.5,2.1,0,3.1,0.3c2.6,0.2,4.9,0.9,6.3,3.5c0.3,0.5,0.6,1,1.3,1.1c2.8,0.5,5.7,0.1,8.5,0.2
	C74,133.3,74.9,133,75.7,133.5z"/>
</svg>
