<svg  xmlns="http://www.w3.org/2000/svg" viewBox="0 0 50 50"><path d="M16.58,28.36a1.47,1.47,0,0,0,1.15.54,1.5,1.5,0,0,0,1-.34l7.07-5.82,0,0,.13-.14.08-.09.11-.18a.41.41,0,0,1,.05-.09,1.42,1.42,0,0,0,.07-.22l0-.08a1.66,1.66,0,0,0,0-.32,1.55,1.55,0,0,0,0-.31l0-.09a1.72,1.72,0,0,0-.07-.21.31.31,0,0,1-.05-.1L26,20.7l-.08-.09a.86.86,0,0,0-.13-.14l0,0L18.69,14.6a1.5,1.5,0,0,0-1.91,2.32l3.85,3.16H4.54a1.5,1.5,0,1,0,0,3H20.63l-3.85,3.17A1.49,1.49,0,0,0,16.58,28.36Z"/><path d="M46.15,40.17a.29.29,0,0,0,0-.09,1.42,1.42,0,0,0,0-.36V3.45a2.09,2.09,0,0,0,0-.36l0-.09a1.33,1.33,0,0,0-.1-.24l0-.09a2.48,2.48,0,0,0-.19-.26,0,0,0,0,1,0,0,1.86,1.86,0,0,0-.28-.21l0,0-.06,0a1,1,0,0,0-.24-.1.19.19,0,0,0-.1,0A1.54,1.54,0,0,0,44.77,2H17.84a1.5,1.5,0,0,0-1.5,1.5V10a1.5,1.5,0,0,0,3,0V5H39l-9.44,5.29a1.5,1.5,0,0,0-.77,1.31V38.22H19.34V33.09a1.5,1.5,0,1,0-3,0v6.63a1.5,1.5,0,0,0,1.5,1.5H28.77v6.6a1.51,1.51,0,0,0,.74,1.3,1.57,1.57,0,0,0,.76.2,1.47,1.47,0,0,0,.73-.19L45.46,41l0,0a1.35,1.35,0,0,0,.27-.2h0a3,3,0,0,0,.22-.28l0-.09A1.89,1.89,0,0,0,46.15,40.17Zm-14.38,0a1.35,1.35,0,0,0,.06-.41,1.4,1.4,0,0,0-.06-.41V12.43L43.22,6V38.84L31.77,45.26Z"/></svg>