<svg xmlns="http://www.w3.org/2000/svg" viewBox="0 0 90 90">
    <path d="M78.39,19.73H20.32a1,1,0,0,0-1,1V27.1h2V21.73H77.39V59.4H72.18v2h6.21a1,1,0,0,0,1-1V20.73A1,1,0,0,0,78.39,19.73Z"/>
    <path d="M69.68,28.6H11.61a1,1,0,0,0-1,1V69.27a1,1,0,0,0,1,1H69.68a1,1,0,0,0,1-1V29.6A1,1,0,0,0,69.68,28.6Zm-1,29.8v9.87H50.91L40.71,60.4l-2.59-2-.63-.48,17-13.09,14.21,11ZM24.06,68.27H12.61V63.85l7.71-5.94,2-1.54,4.94-3.81,7,5.36.63.48,1,.78,1.59,1.22,10.2,7.87ZM12.61,30.6H68.68V53.26L55.08,42.78a1,1,0,0,0-1.23,0l-18,13.88-8-6.16a1,1,0,0,0-1.22,0l-4.33,3.34-2,1.54-7.71,5.94Z"/>
    <path d="M27,47.27a6.46,6.46,0,1,0-4.67-2A6.37,6.37,0,0,0,27,47.27ZM27,36.4a4.44,4.44,0,1,1-4.44,4.44A4.44,4.44,0,0,1,27,36.4Z"/>
</svg>