<svg  xmlns="http://www.w3.org/2000/svg" viewBox="0 0 200 60"><g id="path241"><path class="cls-1" d="M37.8,17c-14.56,0-26.25,6.47-26.25,14.32S23.12,45.61,37.8,45.61s26.25-6.48,26.25-14.32S52.33,17,37.8,17Zm0,27.89c-13.39,0-24.85-6.2-24.85-13.58S24.64,17.56,37.77,17.56c13.36,0,24.84,6.34,24.84,13.72S51.07,44.86,37.77,44.86Z"/></g><g id="path243"><path class="cls-1" d="M57.59,29.5c-.81.17-1.56.43-2.33.66a13.69,13.69,0,0,1-1.53.37h-.21l.09-.15.23-.22c.77-.76,1.64-1.41,2.44-2.14.25-.29.8-.52.63-1.05-.17-.09-.61.09-.82.18a18,18,0,0,0-4.32,3l-.12.11c-.75.57-.89,1.88-2,1.8a4.13,4.13,0,0,1-1.09-.15,17.42,17.42,0,0,0,3.55-4.51s.19-.63-.08-.61a9.94,9.94,0,0,0-2.86,2c.08-.35.65-1,.37-1.44-1.81.38-4.38,2.81-4.39,2.82-.49.33-.67,1.36-1.43,1.21a4.55,4.55,0,0,1-1.32-.23,16.67,16.67,0,0,0,1.41-1c1.05-.81,2-1.74,3-2.63.06-.13.39-.26.2-.46s-.69.12-1,.19a9.3,9.3,0,0,0-3.68,2.9,9,9,0,0,0-.65.82,3.67,3.67,0,0,1-1.5-.28c.22-.19.44-.37.67-.54a14.37,14.37,0,0,0,3.37-3.33c-.09-.49-.58-.1-.81,0a9.66,9.66,0,0,0-4.05,3.42c-.07.1-.13.2-.19.3a10.12,10.12,0,0,1-2-.3h0v-.07a11.32,11.32,0,0,0,4.09-3.84s.9-1.59-1.08-.28a10.71,10.71,0,0,0-3.79,4s-1,0-1-.07A16,16,0,0,0,38,25.72c0-.24.2-.75-.16-.8-1.34.56-2.22,2.13-2.94,3.6-.21.43-.33,1-.53,1.39A8.55,8.55,0,0,1,32,29.69a28.76,28.76,0,0,0,3.23-2.86c.17-.31,1.27-1.06,1.24-2-.34-.21-.69,0-.9.19l-3,2.4h-.16c.48-.86,1.53-2.12,2-3a1.81,1.81,0,0,0,.31-.93l-.26-.09a8.79,8.79,0,0,0-4.81,5.84c-.18.25-.26.74-.64.6a7.32,7.32,0,0,0-.53-2.13,10.1,10.1,0,0,0-4-4.41c-.28-.16-.44.14-.35.37a9.83,9.83,0,0,0,1.68,3.29,34.23,34.23,0,0,0,2.44,3c-.27.1-6.48,1.58-7.58,2.47a2.85,2.85,0,0,0-1.5,2.68,1.32,1.32,0,0,0,.81,1.09,1.24,1.24,0,0,0,.95-.08,14.92,14.92,0,0,1,3.95-3.68,8.21,8.21,0,0,1,2.92-1.2,21.28,21.28,0,0,0,1.45,1.58,7.72,7.72,0,0,0,4.2,2.26l.18,0-.06-.17a9.48,9.48,0,0,0-3.86-3c-.25-.19-.86-.51-.89-.9a6.12,6.12,0,0,1,3.2-.13c1.31,2.26,2.74,4.75,4.83,6.17.16,0,.27-.18.19-.32-1.45-3.53-2.38-3.84-3.86-5.46-.08-.12-.19-.4,0-.5l1.39,0c.44.07,1-.06,1.16.13.07,2.34,1.57,4.12,2.48,5.89,0,0,.29.17.27-.13v0c-.37-4.11-1.91-5.06-2.14-5.75A1.22,1.22,0,0,1,37,31a11.1,11.1,0,0,0,4,4.61s.25,0,.11-.26c-.5-1.71-2.07-2.58-3.09-3.87l-.18-.33.21,0a4.47,4.47,0,0,1,1.34.4,10.58,10.58,0,0,0,2.2,2.76A4.82,4.82,0,0,0,44,35.84l.12,0,0-.09,0-.13c-.65-1.69-2.39-2.4-3.62-3.59-.08-.07-.24-.38,0-.43l2,.29c3,4,4.13,3.82,4.13,3.82s.9.2.49-.45a25.75,25.75,0,0,0-3-2.39c-.21-.2-.73-.55-.68-.91l1.37.16a3.55,3.55,0,0,1,.85.18c1.55.69,1.69,2.87,5.46,3.32.14,0,.16-.17.07-.28-1.08-.84-3.89-2.73-4.06-2.94a14,14,0,0,1,2.11.36c1.9,1,3.06,1.78,5.77,1.42.24-.34-.14-.47-.46-.6L53,33c-.2-.06-1-.22-1.35-.32a26.22,26.22,0,0,0,5.2-2c.22-.17.49-.31.71-.51a1.21,1.21,0,0,0,.36-.51C58,29.4,57.59,29.5,57.59,29.5Zm-27.32.29c-.18-.11,0-.32,0-.4s.64-1.11,1.15-.84C31.52,28.8,30.63,29.85,30.27,29.79Zm17.9.37c-.28.47-.08,1.14-.45,1.58l-2.54-.33a17.61,17.61,0,0,0,3.38-1.94Zm2.74,1.95c0-.27.29-.51.49-.7.85-.7,1,0,1,0A3.08,3.08,0,0,1,50.91,32.11Z"/></g><path class="cls-1" d="M73.19,27.44h4.67v1.21H74.67v2.23h3v1.21h-3v3.43H73.19Z"/><path class="cls-1" d="M84.12,31.94H81.07v2.37h3.41v1.21H79.6V27.44h4.7v1.21H81.07v2.08h3.05Z"/><path class="cls-1" d="M86.05,33.91a4,4,0,0,0,2,.52c1,0,1.47-.45,1.47-1.11s-.41-1-1.43-1.34c-1.34-.47-2.19-1.19-2.19-2.35,0-1.32,1.11-2.32,2.86-2.32a4.33,4.33,0,0,1,1.94.4L90.3,28.9a3.56,3.56,0,0,0-1.62-.38c-.94,0-1.33.5-1.33,1,0,.62.46.91,1.54,1.33,1.41.53,2.08,1.24,2.08,2.4s-1,2.43-3.06,2.43a4.7,4.7,0,0,1-2.19-.52Z"/><path class="cls-1" d="M94.16,28.68H91.85V27.44H98v1.24H95.63v6.84H94.16Z"/><path class="cls-1" d="M100.68,27.44v8.08H99.21V27.44Z"/><path class="cls-1" d="M104.52,35.52l-2.61-8.08h1.61l1.1,3.67c.31,1,.58,2,.79,3h0c.21-1,.51-1.94.82-2.92l1.18-3.7H109l-2.79,8.08Z"/><path class="cls-1" d="M111.15,33.24l-.69,2.28h-1.53l2.59-8.08h1.88L116,35.52h-1.58l-.74-2.28Zm2.32-1.12-.64-2c-.15-.5-.29-1.05-.41-1.52h0c-.12.47-.25,1-.39,1.51l-.62,2Z"/><path class="cls-1" d="M117.46,27.44h1.47v6.84h3.33v1.24h-4.8Z"/><path class="cls-1" d="M126.46,27.55a14.69,14.69,0,0,1,2.35-.17,4.94,4.94,0,0,1,3.3.93,3.62,3.62,0,0,1,1.26,3,4.18,4.18,0,0,1-1.26,3.22,5.43,5.43,0,0,1-3.66,1.1,14.3,14.3,0,0,1-2-.11Zm1.47,6.85a6.8,6.8,0,0,0,.83,0,2.77,2.77,0,0,0,3.05-3.1,2.57,2.57,0,0,0-2.87-2.81,5.45,5.45,0,0,0-1,.09Z"/><path class="cls-1" d="M139.48,31.94h-3v2.37h3.41v1.21H135V27.44h4.71v1.21h-3.23v2.08h3Z"/><path class="cls-1" d="M150,35.28a5.12,5.12,0,0,1-2.1.37,3.82,3.82,0,0,1-4.12-4.07,4.07,4.07,0,0,1,4.32-4.27,4.51,4.51,0,0,1,2,.36l-.32,1.18a3.7,3.7,0,0,0-1.58-.32,2.69,2.69,0,0,0-2.83,3,2.65,2.65,0,0,0,2.82,2.91,4.41,4.41,0,0,0,1.61-.29Z"/><path class="cls-1" d="M153.28,33.24l-.69,2.28h-1.53l2.6-8.08h1.87l2.63,8.08h-1.58l-.74-2.28Zm2.32-1.12-.64-2c-.15-.5-.29-1.05-.41-1.52h0c-.12.47-.25,1-.39,1.51l-.62,2Z"/><path class="cls-1" d="M159.59,35.52V27.44h1.69l2.08,3.47a21,21,0,0,1,1.38,2.71h0a32.25,32.25,0,0,1-.13-3.35V27.44H166v8.08h-1.53L162.36,32a30.87,30.87,0,0,1-1.45-2.79h0c.06,1.06.08,2.12.08,3.45v2.89Z"/><path class="cls-1" d="M168,35.52V27.44h1.69l2.09,3.47a22.25,22.25,0,0,1,1.37,2.71h0c-.1-1.07-.13-2.12-.13-3.35V27.44h1.36v8.08h-1.53L170.77,32a30.87,30.87,0,0,1-1.45-2.79h0c.06,1.06.07,2.12.07,3.45v2.89Z"/><path class="cls-1" d="M180.94,31.94h-3.05v2.37h3.4v1.21h-4.88V27.44h4.71v1.21h-3.23v2.08h3.05Z"/><path class="cls-1" d="M182.86,33.91a4.08,4.08,0,0,0,2,.52c.94,0,1.47-.45,1.47-1.11s-.41-1-1.43-1.34c-1.34-.47-2.19-1.19-2.19-2.35,0-1.32,1.1-2.32,2.86-2.32a4.4,4.4,0,0,1,1.94.4l-.36,1.19a3.51,3.51,0,0,0-1.61-.38c-.94,0-1.34.5-1.34,1,0,.62.47.91,1.55,1.33,1.4.53,2.08,1.24,2.08,2.4s-1,2.43-3.07,2.43a4.69,4.69,0,0,1-2.18-.52Z"/></svg>