<?xml version="1.0" encoding="utf-8"?>
<!-- Generator: Adobe Illustrator 25.0.1, SVG Export Plug-In . SVG Version: 6.00 Build 0)  -->
<svg version="1.1" id="圖層_1" xmlns="http://www.w3.org/2000/svg" xmlns:xlink="http://www.w3.org/1999/xlink" x="0px" y="0px"
	 viewBox="0 0 60 60" style="enable-background:new 0 0 60 60;" xml:space="preserve">
<g id="path241">
	<path d="M29.4,17C14.8,17,3.1,23.5,3.1,31.3s11.6,14.3,26.2,14.3s26.3-6.5,26.3-14.3S43.9,17,29.4,17z M29.4,44.9
		C16,44.9,4.5,38.7,4.5,31.3s11.7-13.8,24.8-13.8c13.4,0,24.8,6.3,24.8,13.7S42.6,44.9,29.4,44.9L29.4,44.9z"/>
</g>
<g id="path243">
	<path d="M49.2,29.5c-0.8,0.2-1.6,0.4-2.3,0.7c-0.5,0.2-1,0.3-1.5,0.4h-0.2l0.1-0.1l0.2-0.2c0.8-0.8,1.6-1.4,2.4-2.1
		c0.2-0.3,0.8-0.5,0.6-1c-0.2-0.1-0.6,0.1-0.8,0.2c-1.6,0.8-3,1.8-4.3,3l-0.1,0.1c-0.8,0.6-0.9,1.9-2,1.8c-0.4,0-0.7-0.1-1.1-0.1
		c1.4-1.3,2.6-2.8,3.5-4.5c0,0,0.2-0.6-0.1-0.6c-1.1,0.5-2,1.2-2.9,2c0.1-0.4,0.7-1,0.4-1.4c-1.8,0.4-4.4,2.8-4.4,2.8
		c-0.5,0.3-0.7,1.4-1.4,1.2c-0.4,0-0.9-0.1-1.3-0.2c0.5-0.3,1-0.6,1.4-1c1-0.8,2-1.7,3-2.6c0.1-0.1,0.4-0.3,0.2-0.5s-0.7,0.1-1,0.2
		c-1.5,0.6-2.7,1.6-3.7,2.9c-0.2,0.3-0.4,0.5-0.7,0.8c-0.5,0-1-0.1-1.5-0.3c0.2-0.2,0.4-0.4,0.7-0.5c1.3-0.9,2.4-2,3.4-3.3
		c-0.1-0.5-0.6-0.1-0.8,0c-1.6,0.7-3,1.9-4,3.4c-0.1,0.1-0.1,0.2-0.2,0.3c-0.7,0-1.3-0.1-2-0.3l0,0v-0.1c1.7-0.9,3.1-2.2,4.1-3.8
		c0,0,0.9-1.6-1.1-0.3c-1.6,1-2.9,2.4-3.8,4c0,0-1,0-1-0.1c1.1-1.3,2-2.7,2.6-4.3c0-0.2,0.2-0.8-0.2-0.8c-1.3,0.6-2.2,2.1-2.9,3.6
		c-0.2,0.4-0.3,1-0.5,1.4c-0.8,0-1.6,0-2.4-0.2c1.1-0.9,2.2-1.8,3.2-2.9c0.2-0.3,1.3-1.1,1.2-2c-0.3-0.2-0.7,0-0.9,0.2l-3,2.4H24
		c0.5-0.9,1.5-2.1,2-3c0.2-0.3,0.3-0.6,0.3-0.9L26,23.4c-2.4,1.1-4.2,3.3-4.8,5.8C21,29.5,21,30,20.6,29.8c-0.1-0.7-0.2-1.5-0.5-2.1
		c-0.9-1.8-2.3-3.4-4-4.4c-0.3-0.2-0.4,0.1-0.4,0.4c0.3,1.2,0.9,2.3,1.7,3.3c0.8,1,1.6,2,2.4,3c-0.3,0.1-6.5,1.6-7.6,2.5
		c-1,0.5-1.6,1.6-1.5,2.7c0,0.5,0.4,0.9,0.8,1.1c0.3,0.1,0.7,0.1,1-0.1c1.1-1.5,2.4-2.7,4-3.7c0.9-0.6,1.9-1,2.9-1.2
		c0.5,0.6,0.9,1.1,1.5,1.6c1.1,1.2,2.6,2,4.2,2.3h0.2l-0.1-0.2c-1-1.3-2.3-2.4-3.9-3c-0.2-0.2-0.9-0.5-0.9-0.9
		c1-0.3,2.1-0.4,3.2-0.1c1.3,2.3,2.7,4.8,4.8,6.2c0.2,0,0.3-0.2,0.2-0.3c-1.5-3.5-2.4-3.8-3.9-5.5c-0.1-0.1-0.2-0.4,0-0.5h1.4
		c0.4,0.1,1-0.1,1.2,0.1c0.1,2.3,1.6,4.1,2.5,5.9c0,0,0.3,0.2,0.3-0.1l0,0c-0.4-4.1-1.9-5.1-2.1-5.8c0.2,0,0.5,0,0.7,0.1
		c0.9,1.9,2.3,3.5,4,4.6c0,0,0.2,0,0.1-0.3c-0.5-1.7-2.1-2.6-3.1-3.9l-0.2-0.3h0.2c0.5,0.1,0.9,0.2,1.3,0.4c0.6,1,1.3,2,2.2,2.8
		c0.6,0.7,1.5,1.3,2.4,1.5h0.1v-0.1v-0.1c-0.7-1.7-2.4-2.4-3.6-3.6c-0.1-0.1-0.2-0.4,0-0.4l2,0.3c3,4,4.1,3.8,4.1,3.8
		s0.9,0.2,0.5-0.5c-0.9-0.9-1.9-1.7-3-2.4C35.5,32.7,35,32.3,35,32l1.4,0.2c0.3,0,0.6,0.1,0.8,0.2c1.5,0.7,1.7,2.9,5.5,3.3
		c0.1,0,0.2-0.2,0.1-0.3c-1.1-0.8-3.9-2.7-4.1-2.9c0.7,0.1,1.4,0.2,2.1,0.4c1.9,1,3.1,1.8,5.8,1.4c0.2-0.3-0.1-0.5-0.5-0.6L44.6,33
		c-0.2-0.1-1-0.2-1.3-0.3c1.8-0.5,3.5-1.2,5.2-2c0.2-0.2,0.5-0.3,0.7-0.5c0.2-0.1,0.3-0.3,0.4-0.5C49.6,29.4,49.2,29.5,49.2,29.5z
		 M21.8,29.8c-0.2-0.1,0-0.3,0-0.4s0.6-1.1,1.1-0.8C23.1,28.8,22.2,29.8,21.8,29.8z M39.7,30.2c-0.3,0.5-0.1,1.1-0.5,1.6l-2.5-0.3
		c1.2-0.5,2.3-1.2,3.4-1.9L39.7,30.2z M42.5,32.1c0-0.3,0.3-0.5,0.5-0.7c0.8-0.7,1,0,1,0C43.5,31.8,43,32,42.5,32.1z"/>
</g>
</svg>
