<?xml version="1.0" encoding="utf-8"?>
<!-- Generator: Adobe Illustrator 25.0.1, SVG Export Plug-In . SVG Version: 6.00 Build 0)  -->
<svg version="1.1" id="圖層_1" xmlns="http://www.w3.org/2000/svg" xmlns:xlink="http://www.w3.org/1999/xlink" x="0px" y="0px"
	 viewBox="0 0 50 60" style="enable-background:new 0 0 50 60;" xml:space="preserve">
<g id="surface1">
	<path d="M40.6,48.3h-6.5v-2.5h2.9v0.9h-0.5v-0.3h-1.7v1.2h5.4c0.9-3.3-1.2-10.6-2.7-13.2l-2.4,1.2l-2.2-2.2l-1.7,0.7l-3.7-1.1
		c0.7,1.4,1.5,3.1,1,4.3c-0.4,0.7-1.1,1.2-1.9,1.4l-0.2-0.6c0.7-0.2,1.3-0.7,1.6-1.4c0.2-0.5,0-1.7-1.2-3.9L26.3,32l5,1.4l1.9-0.7
		l2,2l2.5-1.3c2.2,2.4,4,11.1,2.9,14.6L40.6,48.3z"/>
	<path d="M21.3,48.6h-2.9c0.4-1.6,0.8-3.2,1.1-4.9c2.7,0.3,5.3,0.3,8-0.1c-1.2,1-2.5,3.8-2.8,4.8H22c0.1-0.7,0.4-3,0.4-3H23
		l-0.3,2.3H24c0.4-1.2,1-2.3,1.7-3.3c-1.9,0.2-3.8,0.2-5.6,0c-0.1,0.3-0.8,3.4-0.8,3.4h1.4l0.5-2.4l0.6,0.1L21.3,48.6z"/>
	<path d="M32.8,48.4h-5.5c0.4-1.4,2.3-4.3,4-4.8v0.7c-1.4,0.8-2.4,2-3,3.5h3.9v-1.4h-1.7V47H30v-1.2h2.8L32.8,48.4z"/>
	<path d="M21.9,34.2L21.9,34.2L21.8,34L21.9,34.2z"/>
	<path d="M4,40.9l0.6,0.6l1.9-2l3.5-0.2l1-1.2l3.7-0.1l0.1,3.1l-2.5,3.2L11.7,44l2.4-3L14,38.8h-2.6l-0.7,1.1L6.8,40l-2.3,2.4
		l-1.1-1L4,40.9z M1.9,41.5L4.5,44l2.7-3h3.9l0.8-1.1h1.1v0.7l-2.9,3.6l2.2,1.8l3.2-4l3-2.2c1.1,1.3,2.7,1.7,5.1,1.6
		c3.7-0.1,6-1.4,6.6-4.5l0.9,0.3c-0.5,5.2-7,6.1-13.5,4.5c-0.1,3.1-1,6.2-2.7,8.8H42c0.8-1,1.8-4.6,2.4-6.4c0.8-3,1.3-6,1.5-9.1
		c0.2-5.2-0.8-11.8-5.6-14.6l-2.7,2.2l-1.5-0.7l1-3.9C33,16.1,25.5,16,22.5,16.1l-3-3.9l-1.1,7.5l0.9,0.9l-2,2l-0.6-0.4l-3.7,2
		l-0.4,2.1l-3.1,3.8l0.9,0.7l-1.7,0.5l-2.7,3.3L5.2,34l-4.4,4.6l1.9,2L1.9,41.5z M32.3,21.5c1.9,0.5,3.7,1.3,5.4,2.2
		c0.9-0.6,2.6-2,2.6-2c1.1,1,2,2.2,2.8,3.5c0.8,1.5,1.4,3.1,1.6,4.7c0.2,1.6,0.2,3.2,0.1,4.8c-0.2-1-1.5-4.7-2.2-5.3
		c0.2-0.6,0.7-2.6,0.7-2.6l-3.2-3.9l-2.3,1.5c-1.9-0.9-3.8-1.7-5.8-2.3C32,22,32.2,21.7,32.3,21.5L32.3,21.5z M32.5,22.9
		c0.4,0,5.3,2.3,5.3,2.3l2.2-1.5l2.5,3.1l-0.7,2.7c0.7,0.7,2.8,5.7,2.7,7.3c-0.1,1-0.2,2-0.5,3c-0.3-1.5-1.6-7.7-3.6-10.2l0.7-2.7
		l-1.7-2.3l-2.7,1.9l1.8,2.5l0.7-2l-0.9,0.6l-0.7-1l1.6-1.2l1.2,1.5l-0.7,2.6c1.7,3.1,4,9.6,3.8,12.2c-0.3,1.1-0.6,2.2-0.9,3.3
		c-0.1-3.4-0.7-6.7-1.8-9.9c-1-2.3-2.1-4.5-3.4-6.6C35.8,26.7,34.2,24.7,32.5,22.9L32.5,22.9z M27.5,17.2c0.8-0.3,8.4,1.1,8.4,1.1
		l-0.4,1.1c-2.5-0.5-5-0.8-7.5-0.9C27.8,18.1,27.7,17.6,27.5,17.2L27.5,17.2z M23.5,18.5l-0.8-1.3h3.7c0,0-1,0.9-1.2,1.2L23.5,18.5z
		 M22.1,18.6l-1.7,1.6l-0.8-1l0.7-4.2l2.3,3.5L22.1,18.6z M24.7,19.1c-1.1,2-1.8,4.3-2.1,6.6h0.8c0.1-2.2,0.8-4.4,2-6.3
		c0.3-0.4,0.6-0.7,1-1l-1.1,5.4H26l1.2-5.3c0.5,0.9,0.4,3.1,0.4,3.9h0.7c0-1,0-2.1-0.2-3.1c2.5,0.1,4.9,0.4,7.3,1l-0.3,1.2l-3.2-0.9
		L31,22.5c0,0,3.2,3.6,4.3,5.2c1.8,2.5,3.4,5.2,4.6,8c1.5,4,2,6.4,1.4,13.6H26.2c0.3-1.4,0.9-2.7,1.8-3.9c0.8-1.2,2-2.2,3.3-2.8
		v-0.8c-1.4,0.2-3.4,2.5-3.9,3.2c-0.9,1.3-1.6,2.7-2,4.2H17c0.9-2,1.4-4.2,1.6-6.3c1.6,0.4,7.7,0.7,9.8-0.4c2.3-1.2,3.9-2.5,4.1-6.2
		l-2.9-0.9c-0.2,3.6-2.7,4.7-6,4.8c-3.2,0.1-3.9-1-4.2-1.3c-0.8-1-1.4-2.1-1.8-3.3l2.8-2.5l0.6,1l-2.2,2l0.9,1.8
		c0.2,0.4,0.5,0.6,0.8,0.8c0.4,0.1,0.6,0.2,1.3-0.2l4.3-2l-2-4.9L21,30.9l4.6-3.2l3.5,4.3l4.6-3.6l1.9,2.7l-0.9,0.6l-0.9-1.1
		l-0.5,0.4l1.3,1.6l1.8-1.4l-2.6-3.8l-4.4,3.5l-3.5-4.3l-6.3,4.5l4.2,1l1.6,4l-2.5,1.3c-0.6,0.4-1.5,0.8-1.9,0.7
		c-0.2-0.1-0.4-0.4-0.5-0.6l-0.6-1.3l1.7-1.6l0.8,1.4c-0.1,0.2-0.3,0.3-0.5,0.4c-0.3,0-0.5-0.1-0.7-0.3l-0.3,0.4
		c0.3,0.2,0.6,0.4,0.9,0.4c0.1,0,0.2,0,0.3,0c0.4-0.2,0.8-0.4,1.1-0.8L20.6,32l-3.8,3.5c0.4,1.1,0.9,2.1,1.4,3.1l-2.7,1.9l-0.1-3.1
		h-4.5l-1,1.3l-3.6,0.2l-1.6,1.5l-2.1-1.9l2.8-3.1l1.2,1.2l-1.9,2l-0.4-0.3l1.5-1.5l-0.4-0.5l-2,2.1l1.3,1.2l3.3-3.4l-0.8-0.9l2.4-3
		l2-0.7l0.9,0.5l1.4-1.8l2,1.1l3.5-3L19,27.8l-3.2,2.8l-2.2-1.1l-1.3,1.6l-1.3-0.9l2.4-3.1l0.4-2l2.9-1.6l1.7,1
		C18.2,26.2,18,28,15,27.6c2.7,1.3,3.8-0.7,4.3-2.6l1.6,0.9l0.4-0.6l-3.2-2l4.5-4.3L24.7,19.1z"/>
	<path d="M18.1,25.9c0,0.8-0.7,1.5-1.5,1.5s-1.5-0.7-1.5-1.5c0-0.8,0.7-1.5,1.5-1.5h0C17.5,24.4,18.1,25.1,18.1,25.9z"/>
</g>
</svg>
