<svg xmlns="http://www.w3.org/2000/svg" viewBox="0 0 200 60"><g id="surface1"><path class="cls-1" d="M50.62,48.27l-6.45,0V45.8h2.91v.91h-.51v-.29H44.84v1.25h5.38c.86-3.35-1.2-10.6-2.71-13.17l-2.42,1.18L42.9,33.5l-1.74.65-3.69-1.09c.73,1.38,1.48,3.06,1,4.29a2.91,2.91,0,0,1-1.92,1.38l-.25-.56a2.55,2.55,0,0,0,1.56-1.36c.17-.52,0-1.73-1.2-3.94l-.36-.82,5,1.42,1.91-.68,2,2,2.51-1.3c2.22,2.37,4,11.09,2.93,14.59Z"/><path class="cls-1" d="M31.26,48.58h-2.9a48.44,48.44,0,0,0,1.06-4.86,29,29,0,0,0,8-.06c-1.25,1-2.51,3.78-2.81,4.84H32c.13-.74.44-3,.44-3h.6l-.29,2.28H34a12.55,12.55,0,0,1,1.7-3.26,25.26,25.26,0,0,1-5.64,0c-.08.26-.82,3.39-.82,3.39h1.4l.52-2.38.65.06Z"/><path class="cls-1" d="M42.79,48.44h-5.5c.42-1.41,2.27-4.32,4-4.85v.71a6.89,6.89,0,0,0-3,3.48h3.93V46.42H40.52V47H40V45.82h2.81Z"/><path class="cls-1" d="M31.89,34.23h0l-.1-.18Z"/><path class="cls-1" d="M14,40.87l.63.58,1.93-2,3.54-.17,1-1.17,3.67-.08.08,3.11-2.48,3.25L21.74,44,24.1,41,24,38.82h-2.6l-.73,1.11L16.79,40l-2.31,2.41-1.07-1Zm-2.11.59L14.53,44l2.73-3,3.85,0,.82-1.1,1.15,0,0,.65-2.86,3.58,2.23,1.76,3.18-4,3-2.23c1.06,1.3,2.68,1.72,5.09,1.64,3.69-.12,6-1.39,6.62-4.54l.87.31c-.54,5.23-7,6.11-13.46,4.53a17,17,0,0,1-2.66,8.84H52c.82-1,1.79-4.57,2.38-6.39a42.68,42.68,0,0,0,1.5-9.12c.25-5.22-.84-11.81-5.59-14.63l-2.67,2.18-1.51-.73,1-3.87c-4.15-1.75-11.62-1.9-14.6-1.76l-3-3.89-1.12,7.53.94.92-2,2-.63-.39-3.71,2-.36,2.11-3.07,3.8.9.71-1.68.48-2.66,3.27-.93-.7-4.37,4.64,1.94,2Zm30.41-20a24.08,24.08,0,0,1,5.4,2.25c.87-.64,2.62-2,2.62-2a17.32,17.32,0,0,1,2.84,3.46,13.23,13.23,0,0,1,1.59,4.71,23.74,23.74,0,0,1,.09,4.77c-.24-1-1.45-4.67-2.19-5.28.21-.64.65-2.57.65-2.57L50.1,22.93l-2.34,1.5a38.81,38.81,0,0,0-5.82-2.28C42,22,42.16,21.66,42.25,21.41Zm.18,1.49c.39,0,5.29,2.3,5.29,2.3L50,23.79l2.5,3.15-.65,2.67c.72.72,2.83,5.73,2.69,7.3a17.29,17.29,0,0,1-.47,3c-.28-1.47-1.63-7.69-3.58-10.19L51.17,27l-1.71-2.29-2.71,1.94,1.82,2.45.68-2-.91.59-.69-.95,1.64-1.18,1.17,1.54-.73,2.64c1.66,3.09,4,9.64,3.84,12.24a31.6,31.6,0,0,1-.93,3.29,30.53,30.53,0,0,0-1.85-9.93,56.77,56.77,0,0,0-3.4-6.62A71,71,0,0,0,42.43,22.9Zm-5-5.72c.79-.3,8.39,1.13,8.39,1.13L45.5,19.5a47.51,47.51,0,0,0-7.5-.91A10.34,10.34,0,0,0,37.44,17.18Zm-4,1.25-.76-1.26h3.66s-1,.93-1.24,1.22Zm-1.4.11-1.66,1.57-.8-.95L30.36,15l2.33,3.48Zm2.65.55a17.13,17.13,0,0,0-2.09,6.59h.82a13,13,0,0,1,2-6.28,7.16,7.16,0,0,1,1-1l-1.09,5.42H36l1.18-5.33c.47.85.41,3.09.38,3.9h.67a23.31,23.31,0,0,0-.15-3.12,33.61,33.61,0,0,1,7.32,1l-.28,1.18-3.25-.88-.82,1.84s3.17,3.61,4.35,5.2A41.28,41.28,0,0,1,50,35.63c1.53,4,2,6.42,1.43,13.6H36.22A8.54,8.54,0,0,1,38,45.37a8.3,8.3,0,0,1,3.35-2.82v-.78c-1.37.17-3.41,2.54-3.9,3.23a11.73,11.73,0,0,0-2,4.22H27a19.88,19.88,0,0,0,1.64-6.35c1.61.4,7.66.7,9.77-.39,2.32-1.19,3.9-2.53,4.09-6.18l-2.86-.87c-.25,3.56-2.7,4.74-6,4.83-3.16.08-3.86-1-4.18-1.34a11.6,11.6,0,0,1-1.77-3.29l2.82-2.55.61,1-2.21,2,.93,1.78a1.55,1.55,0,0,0,.83.8c.38.13.6.2,1.34-.15l4.27-2-2-4.85L31,30.88l4.58-3.24,3.52,4.3,4.57-3.63L45.55,31l-.88.64-.87-1.06-.49.35,1.3,1.63,1.83-1.35-2.59-3.8L39.4,30.91l-3.54-4.27-6.33,4.53,4.18,1,1.61,4-2.55,1.26c-.61.36-1.53.79-1.91.66-.2-.07-.39-.41-.47-.6l-.65-1.31,1.74-1.59.83,1.44a1.15,1.15,0,0,1-.48.37,1.43,1.43,0,0,1-.71-.32l-.32.42a1.89,1.89,0,0,0,.9.42,2.81,2.81,0,0,0,.29,0,2.72,2.72,0,0,0,1.14-.81L30.64,32,26.8,35.5a19.72,19.72,0,0,0,1.42,3.14l-2.7,1.89-.14-3.13H20.85l-1,1.29-3.64.18-1.65,1.55-2.09-1.86,2.8-3.08,1.23,1.2-1.87,2-.37-.34,1.5-1.52-.45-.53-2,2.11,1.31,1.23,3.28-3.4-.82-.9,2.43-3,2-.66.89.51,1.44-1.83,2,1.08,3.51-3L29,27.83l-3.18,2.76-2.16-1.15L22.4,31.06l-1.26-.94L23.58,27l.36-2,2.93-1.57,1.66,1C28.22,26.22,28,28,25,27.58c2.68,1.31,3.84-.72,4.34-2.6l1.56.92.38-.56-3.18-2,4.49-4.28Z"/><path class="cls-1" d="M28.11,25.9a1.47,1.47,0,1,1-1.47-1.47A1.47,1.47,0,0,1,28.11,25.9Z"/></g><path class="cls-1" d="M69.74,23.48H67.43V22.24h6.11v1.24H71.21v6.84H69.74Z"/><path class="cls-1" d="M75.53,28l-.69,2.28H73.31l2.59-8.08h1.89l2.62,8.08H78.83L78.09,28Zm2.32-1.12-.64-2c-.15-.5-.29-1.05-.41-1.52h0c-.12.47-.24,1-.39,1.52l-.62,2Z"/><path class="cls-1" d="M83.32,22.24v8.08H81.84V22.24Z"/><path class="cls-1" d="M85.31,22.34a13.61,13.61,0,0,1,2.26-.16,3.6,3.6,0,0,1,2.38.66,2.27,2.27,0,0,1,.79,1.79,2.47,2.47,0,0,1-.69,1.83,3.57,3.57,0,0,1-2.56.87,3.12,3.12,0,0,1-.72-.06v3.05H85.31Zm1.46,3.77a2.9,2.9,0,0,0,.73.07c1.1,0,1.77-.55,1.77-1.5s-.62-1.37-1.64-1.37a4.73,4.73,0,0,0-.86.07Z"/><path class="cls-1" d="M96.84,26.74h-3v2.37H97.2v1.21H92.31V22.24H97v1.21H93.79v2.08h3Z"/><path class="cls-1" d="M100.27,22.24v8.08H98.79V22.24Z"/><path class="cls-1" d="M111.53,30a8.14,8.14,0,0,1-2.6.45,4.35,4.35,0,0,1-3.17-1.07,4,4,0,0,1-1.13-3c0-2.57,1.83-4.2,4.5-4.2a5.41,5.41,0,0,1,2.15.38L111,23.73a4.21,4.21,0,0,0-1.84-.35,2.71,2.71,0,0,0-2.94,2.9A2.68,2.68,0,0,0,109,29.21,2.72,2.72,0,0,0,110.1,29V27h-1.43V25.87h2.86Z"/><path class="cls-1" d="M120.51,26.2c0,2.71-1.64,4.26-3.86,4.26s-3.73-1.75-3.73-4.12,1.57-4.23,3.85-4.23S120.51,23.89,120.51,26.2Zm-6,.11c0,1.65.83,3,2.24,3S119,28,119,26.26c0-1.53-.76-3-2.23-3S114.48,24.65,114.48,26.31Z"/><path class="cls-1" d="M122.09,22.24h1.47v6.84h3.33v1.24h-4.8Z"/><path class="cls-1" d="M128.3,22.35a14.82,14.82,0,0,1,2.36-.17,4.91,4.91,0,0,1,3.29.93,3.61,3.61,0,0,1,1.27,3A4.19,4.19,0,0,1,134,29.3a5.43,5.43,0,0,1-3.66,1.1,16.74,16.74,0,0,1-2-.1Zm1.48,6.85a6.4,6.4,0,0,0,.82,0,2.78,2.78,0,0,0,3.06-3.1,2.57,2.57,0,0,0-2.88-2.81,5.43,5.43,0,0,0-1,.08Z"/><path class="cls-1" d="M141.32,26.74h-3v2.37h3.41v1.21H136.8V22.24h4.7v1.21h-3.23v2.08h3Z"/><path class="cls-1" d="M143.28,30.32V22.24H145l2.09,3.47a21,21,0,0,1,1.38,2.71h0a32.13,32.13,0,0,1-.13-3.35V22.24h1.36v8.08h-1.53l-2.11-3.55A29.59,29.59,0,0,1,144.6,24h0c.06,1.05.08,2.11.08,3.44v2.89Z"/><path class="cls-1" d="M156,22.24v3.23h3.42V22.24h1.47v8.08h-1.47V26.76H156v3.56h-1.48V22.24Z"/><path class="cls-1" d="M170,26.2c0,2.71-1.64,4.26-3.86,4.26s-3.73-1.75-3.73-4.12,1.57-4.23,3.85-4.23S170,23.89,170,26.2Zm-6,.11c0,1.65.83,3,2.24,3s2.24-1.32,2.24-3c0-1.53-.76-3-2.24-3S164,24.65,164,26.31Z"/><path class="cls-1" d="M171.59,22.35a13.59,13.59,0,0,1,2.23-.17,3.76,3.76,0,0,1,2.5.65,2,2,0,0,1,.69,1.62,2.13,2.13,0,0,1-1.47,2v0a2,2,0,0,1,1.13,1.56,18.19,18.19,0,0,0,.64,2.25h-1.52a10.43,10.43,0,0,1-.54-1.9c-.23-1.06-.62-1.4-1.46-1.42h-.74v3.32h-1.46Zm1.46,3.57h.87c1,0,1.62-.53,1.62-1.33s-.62-1.3-1.57-1.3a4,4,0,0,0-.92.08Z"/><path class="cls-1" d="M178.68,28.71a4.08,4.08,0,0,0,2,.52c.94,0,1.47-.44,1.47-1.11s-.41-1-1.43-1.34c-1.34-.47-2.19-1.19-2.19-2.35,0-1.32,1.1-2.32,2.86-2.32a4.37,4.37,0,0,1,1.94.4l-.36,1.19a3.51,3.51,0,0,0-1.61-.38c-.94,0-1.34.5-1.34,1s.47.91,1.55,1.32c1.4.53,2.08,1.24,2.08,2.4s-1,2.43-3.07,2.43a4.7,4.7,0,0,1-2.18-.51Z"/><path class="cls-1" d="M189.76,26.74h-3v2.37h3.4v1.21h-4.88V22.24H190v1.21h-3.23v2.08h3Z"/><path class="cls-1" d="M68.18,36.64h4.68v1.21h-3.2v2.24h3v1.2h-3v3.43H68.18Z"/><path class="cls-1" d="M76.07,36.64v8.08H74.59V36.64Z"/><path class="cls-1" d="M78.06,36.64h1.48v6.84h3.32v1.24h-4.8Z"/><path class="cls-1" d="M91.1,41.43c0-1-.1-2.3-.1-3.4h0c-.26,1-.6,2.08-1,3.1l-1.19,3.5H87.7l-1.08-3.45c-.31-1-.6-2.14-.81-3.15h0c0,1-.08,2.35-.15,3.44l-.18,3.25H84.08l.54-8.08h1.94l1,3.25c.29,1,.55,1.91.74,2.81h0c.22-.88.49-1.87.81-2.82l1.12-3.24h1.91l.47,8.08H91.26Z"/><path class="cls-1" d="M97.28,36.64H102v1.21h-3.2v2.24h3v1.2h-3v3.43H97.28Z"/><path class="cls-1" d="M108.21,41.14h-3v2.37h3.4v1.21h-4.88V36.64h4.7v1.21h-3.22v2.08h3Z"/><path class="cls-1" d="M110.14,43.11a4,4,0,0,0,2,.52c.94,0,1.47-.44,1.47-1.11s-.41-1-1.44-1.34c-1.33-.47-2.19-1.19-2.19-2.35,0-1.32,1.11-2.32,2.87-2.32a4.32,4.32,0,0,1,1.93.4l-.35,1.19a3.55,3.55,0,0,0-1.61-.38c-.94,0-1.34.5-1.34,1s.47.91,1.55,1.32c1.4.53,2.08,1.24,2.08,2.4s-1,2.43-3.07,2.43a4.67,4.67,0,0,1-2.18-.51Z"/><path class="cls-1" d="M118.25,37.88h-2.31V36.64h6.12v1.24h-2.33v6.84h-1.48Z"/><path class="cls-1" d="M124.78,36.64v8.08H123.3V36.64Z"/><path class="cls-1" d="M128.62,44.72,126,36.64h1.61l1.1,3.68a28.59,28.59,0,0,1,.79,2.94h0c.22-1,.51-1.94.82-2.92l1.18-3.7h1.57l-2.79,8.08Z"/><path class="cls-1" d="M135.24,42.44l-.69,2.28H133l2.6-8.08h1.88l2.62,8.08h-1.58l-.73-2.28Zm2.32-1.12-.64-2c-.15-.5-.28-1-.41-1.52h0c-.12.47-.24,1-.39,1.52l-.62,2Z"/><path class="cls-1" d="M141.55,36.64H143v6.84h3.32v1.24h-4.8Z"/></svg>