<svg xmlns="http://www.w3.org/2000/svg" viewBox="0 0 200 60"><path class="cls-1" d="M58.79,33.24l-.69,2.28H56.58l2.59-8.08h1.88l2.63,8.08H62.09l-.73-2.28Zm2.33-1.12-.64-2c-.16-.5-.29-1.05-.41-1.52h0c-.12.47-.24,1-.38,1.51l-.63,2Z"/><path class="cls-1" d="M70.66,35.28a5.12,5.12,0,0,1-2.1.37,3.82,3.82,0,0,1-4.13-4.07,4.08,4.08,0,0,1,4.33-4.27,4.55,4.55,0,0,1,2,.36l-.32,1.18a3.89,3.89,0,0,0-1.58-.32,2.69,2.69,0,0,0-2.83,3,2.64,2.64,0,0,0,2.81,2.91,4.37,4.37,0,0,0,1.61-.29Z"/><path class="cls-1" d="M73.91,33.24l-.69,2.28H71.7l2.59-8.08h1.88l2.63,8.08H77.21l-.73-2.28Zm2.33-1.12-.64-2c-.16-.5-.29-1.05-.41-1.52h0c-.12.47-.24,1-.38,1.51l-.63,2Z"/><path class="cls-1" d="M80.22,27.55a14.82,14.82,0,0,1,2.36-.17,4.9,4.9,0,0,1,3.29.93,3.6,3.6,0,0,1,1.27,3,4.18,4.18,0,0,1-1.26,3.22,5.43,5.43,0,0,1-3.66,1.1,14.56,14.56,0,0,1-2-.11ZM81.7,34.4a6.5,6.5,0,0,0,.82,0,2.78,2.78,0,0,0,3.06-3.1,2.57,2.57,0,0,0-2.87-2.82,5.27,5.27,0,0,0-1,.09Z"/><path class="cls-1" d="M93.24,31.94h-3v2.37h3.4v1.21H88.72V27.44h4.7v1.21H90.2v2.08h3Z"/><path class="cls-1" d="M102,32.22c0-1-.11-2.3-.1-3.4h0c-.27,1-.61,2.09-1,3.11l-1.18,3.5H98.62L97.55,32c-.32-1-.61-2.14-.82-3.16h0c0,1.06-.08,2.35-.14,3.45l-.18,3.25H95l.54-8.08h1.94l1,3.25c.3.95.55,1.91.75,2.81h0c.22-.88.5-1.87.81-2.82l1.12-3.24h1.92l.46,8.08h-1.44Z"/><path class="cls-1" d="M107.25,35.52V32.16l-2.56-4.72h1.69l1,2.07c.28.6.49,1.06.71,1.61h0c.2-.52.43-1,.7-1.61l1-2.07h1.67l-2.68,4.68v3.4Z"/><path class="cls-1" d="M117,33.24l-.69,2.28H114.8l2.59-8.08h1.88l2.63,8.08h-1.58l-.74-2.28Zm2.32-1.12-.64-2c-.15-.5-.29-1.05-.41-1.52h0c-.12.47-.25,1-.39,1.51l-.62,2Z"/><path class="cls-1" d="M124,35.52l-2-8.08h1.57l.77,3.67c.2,1,.39,2,.53,2.81h0c.13-.84.35-1.81.59-2.83l.87-3.65h1.55l.8,3.72c.2.95.37,1.86.49,2.73h0c.14-.89.34-1.81.55-2.8l.84-3.65h1.5l-2.18,8.08h-1.57l-.84-3.8a25.08,25.08,0,0,1-.45-2.56h0a23.85,23.85,0,0,1-.53,2.56l-.94,3.8Z"/><path class="cls-1" d="M134.33,33.24l-.69,2.28h-1.52l2.59-8.08h1.88l2.63,8.08h-1.59l-.73-2.28Zm2.33-1.12-.64-2c-.16-.5-.29-1.05-.41-1.52h0c-.12.47-.24,1-.38,1.51l-.63,2Z"/><path class="cls-1" d="M140.64,27.55a13.63,13.63,0,0,1,2.24-.17,3.71,3.71,0,0,1,2.49.65,2,2,0,0,1,.7,1.62,2.14,2.14,0,0,1-1.47,2v0a2,2,0,0,1,1.13,1.57,18.19,18.19,0,0,0,.64,2.25h-1.52a10.37,10.37,0,0,1-.54-1.91c-.24-1-.62-1.39-1.46-1.41h-.74v3.32h-1.47Zm1.47,3.57H143c1,0,1.62-.53,1.62-1.33s-.62-1.3-1.57-1.3a4.9,4.9,0,0,0-.92.07Z"/><path class="cls-1" d="M147.77,27.55a14.82,14.82,0,0,1,2.36-.17,4.91,4.91,0,0,1,3.29.93,3.6,3.6,0,0,1,1.27,3,4.22,4.22,0,0,1-1.26,3.22,5.43,5.43,0,0,1-3.66,1.1,14.56,14.56,0,0,1-2-.11Zm1.48,6.85a6.4,6.4,0,0,0,.82,0,2.78,2.78,0,0,0,3.06-3.1,2.58,2.58,0,0,0-2.88-2.82,5.23,5.23,0,0,0-1,.09Z"/><path class="cls-1" d="M156.24,33.91a4,4,0,0,0,1.95.52c.94,0,1.47-.45,1.47-1.11s-.41-1-1.43-1.34c-1.34-.47-2.19-1.19-2.19-2.35,0-1.32,1.11-2.32,2.86-2.32a4.33,4.33,0,0,1,1.94.4l-.35,1.19a3.6,3.6,0,0,0-1.62-.38c-.94,0-1.33.5-1.33,1,0,.62.46.92,1.54,1.33,1.41.53,2.08,1.24,2.08,2.4s-1,2.43-3.06,2.43a4.7,4.7,0,0,1-2.19-.52Z"/><path class="cls-1" d="M23.72,48.23c.24-.61.55-1.19.79-1.81,0-.07.08-.12.13-.16a7.15,7.15,0,0,1,1.23,0,2.42,2.42,0,0,0,.66,0,1.15,1.15,0,0,1,1-.72c.11-.05.26,0,.37-.05a1.08,1.08,0,0,0,1-.36.43.43,0,0,0,.13-.35,1.52,1.52,0,0,0,0-.67c0-.16,0-.32,0-.48s0-.26,0-.37c-.1-.64-.21-1.27-.31-1.91a17.22,17.22,0,0,1,0-1.76c0-.07,0-.15,0-.21a.89.89,0,0,0,0-.51c-.13-.53-.24-1.08-.39-1.61-.06-.24,0-.49-.06-.73a12.51,12.51,0,0,1,0-1.5,5.24,5.24,0,0,1,.16-.88c0-.13.08-.3-.13-.33-.43-.07-.58-.4-.67-.76a10.05,10.05,0,0,1-.5-3.17A1.19,1.19,0,0,1,28,28.59a4.92,4.92,0,0,0,.93-.43.52.52,0,0,0,.22-.66,2.79,2.79,0,0,1-.19-.91c-.05-.12,0-.28-.07-.4v-.13c.08-.11,0-.24.05-.36a.83.83,0,0,1,.8-.8,1.4,1.4,0,0,1,.5,0,1,1,0,0,1,.8.8,4,4,0,0,1,0,.85c-.08.31-.14.61-.22.92a.65.65,0,0,0,.33.82c.37.19.76.36,1.14.52a1.1,1.1,0,0,1,.6,1c0,.32,0,.66,0,1-.09.11,0,.24-.05.36-.15.59-.31,1.17-.44,1.76a1,1,0,0,1-.67.82c-.13,0-.22.14-.14.33a2.82,2.82,0,0,1,.11.52c0,.11,0,.25,0,.36,0,.29,0,.57,0,.85a3.54,3.54,0,0,1,0,.92c-.13.58-.24,1.15-.4,1.71a2.13,2.13,0,0,0-.05.55,1.18,1.18,0,0,0,0,.59s0,.08,0,.13a12,12,0,0,1,0,1.47,22.62,22.62,0,0,0-.38,2.33,5.74,5.74,0,0,0,0,1.31c.08.44.3.6.85.63.16.08.33,0,.49.05a1.1,1.1,0,0,1,1,.56c.05.08.1.16.21.17a10.3,10.3,0,0,0,1.36,0c.15,0,.29-.07.42,0a20.65,20.65,0,0,1,1,2.15c.14.31.25.63.38.93a2.32,2.32,0,0,1,.12.32h9.92L38.32,29.29,30,8.9,21.6,29.29,13.25,49.67h9.94A12.43,12.43,0,0,1,23.72,48.23Z"/></svg>