<svg  xmlns="http://www.w3.org/2000/svg" viewBox="0 0 200 60"><g id="path9364"><path class="cls-1" d="M12.44,26.14c-.09-1.16,2.08-4.36,4-4.36s3.12,1.94,4.51,3.63,2.51,2.48,3.29,2c.62-.37.61-1.39.3-2.16-.39-1-1.18-1.71-.72-3s1.84-1.91,3.49-2.16,4.43-.08,6.16-.57c2.92-.82,3.67-2.48,5-1.61.75.47.86,1.41.49,2.62a6.68,6.68,0,0,1-1.86,3.11,13,13,0,0,1-3,1.7c-1.46.66-2.59,1.21-2.33,2.83.09.57.95,1,1.75.88,1.09-.13,2.38-.51,3.54-.57A14.52,14.52,0,0,1,42.89,30c1.27.63,2.28,1.55,4.24,3.55.67.68,2.73,3.24,3,3.49.88.87,1.76,1.67,2.29,2.11.26.21.21.27.21.27a.4.4,0,0,1-.18,0,11.49,11.49,0,0,1-1.51-.89c-.86-.58-4.62-3.79-5.08-4.15-.71-.57-2.29-1.85-3.19-1-.42.38-.32,1.25-.19,1.63s.72,1.28,1.07,2a25,25,0,0,1,.56,3.34c.21.77,1.11,2.5.4,3.5A3.3,3.3,0,0,1,42,44.84c-.73,0-1.5-.13-1.72-.65-.59-1.42,1.14-1.71.56-3-.2-.43-.87-.34-1.19-.22a5.89,5.89,0,0,0-1.55,1c-.25.21-1.45,1.14-2.52,2-.91.69-2.17.75-2.59.18-1-1.34,1.62-2.15,2.22-2.61,1.6-1.24,2.91-3,1.65-4.61-.95-1.24-2.6-1-4.71-.49-2.35.57-5.07,1.31-6.64,1.71a48.28,48.28,0,0,0-5,1.25A21,21,0,0,0,17,42.56a21.42,21.42,0,0,1-1.83,1.66c-.72.46-2.7,1.08-3.14.07s1.17-1.57,1.85-2.1,2.27-2,2.27-3.44c0-1.22-1-2-1.45-4.4-.37-1.86,0-2.87-.26-4.31-.3-1.66-1.89-2.14-2-3.9"/></g><g id="path9368"><path class="cls-1" d="M53,39.62a3.84,3.84,0,0,1,1.57.09c.8.22,1.5.53,1.38,1s-1,.27-1.47.1A2.78,2.78,0,0,1,53,39.62"/></g><path class="cls-1" d="M57.28,26.44h1.48v6.84h3.32v1.24h-4.8Z"/><path class="cls-1" d="M65.17,32.24l-.69,2.28H63l2.59-8.08h1.88l2.63,8.08H68.46l-.73-2.28Zm2.32-1.12-.64-2c-.15-.5-.29-1.05-.41-1.52h0c-.11.47-.24,1-.38,1.51l-.62,2Z"/><path class="cls-1" d="M74.26,26.55a12.08,12.08,0,0,1,2.16-.17,3.94,3.94,0,0,1,2.31.51,1.72,1.72,0,0,1,.83,1.52,1.86,1.86,0,0,1-1.34,1.74v0a2,2,0,0,1,1.63,2,2.13,2.13,0,0,1-.77,1.67,4.52,4.52,0,0,1-3,.75,14,14,0,0,1-1.82-.11Zm1.47,3.19h.75c1,0,1.6-.48,1.6-1.16s-.58-1.11-1.51-1.11a4.46,4.46,0,0,0-.84.06Zm0,3.71a5.3,5.3,0,0,0,.78,0c.94,0,1.79-.35,1.79-1.35s-.83-1.33-1.84-1.33h-.73Z"/><path class="cls-1" d="M83,26.44v8.08H81.47V26.44Z"/><path class="cls-1" d="M89.46,30.94h-3v2.37h3.4v1.21H84.94V26.44h4.71v1.21H86.42v2.08h3Z"/><path class="cls-1" d="M91.42,34.52V26.44h1.69l2.09,3.47a22.25,22.25,0,0,1,1.37,2.71h0c-.1-1.07-.13-2.12-.13-3.35V26.44h1.36v8.08H96.3L94.19,31a28.39,28.39,0,0,1-1.44-2.79h0c.06,1.06.08,2.12.08,3.45v2.89Z"/><path class="cls-1" d="M99.83,34.52V26.44h1.69l2.09,3.47A22.25,22.25,0,0,1,105,32.62h0c-.1-1.07-.13-2.12-.13-3.35V26.44h1.37v8.08h-1.53L102.61,31a28.5,28.5,0,0,1-1.45-2.79h0c.06,1.06.08,2.12.08,3.45v2.89Z"/><path class="cls-1" d="M109.86,32.24l-.68,2.28h-1.53l2.59-8.08h1.88l2.63,8.08h-1.59l-.73-2.28Zm2.33-1.12-.64-2c-.15-.5-.29-1.05-.41-1.52h0c-.11.47-.24,1-.38,1.51l-.62,2Z"/><path class="cls-1" d="M116.18,26.44h1.47v6.84H121v1.24h-4.8Z"/><path class="cls-1" d="M126.92,30.94h-3v2.37h3.41v1.21h-4.89V26.44h4.71v1.21h-3.23v2.08h3Z"/><path class="cls-1" d="M131.66,26.55a14.69,14.69,0,0,1,2.35-.17,4.94,4.94,0,0,1,3.3.93,3.62,3.62,0,0,1,1.26,3,4.18,4.18,0,0,1-1.26,3.22,5.43,5.43,0,0,1-3.66,1.1,14.3,14.3,0,0,1-2-.11Zm1.47,6.85a6.8,6.8,0,0,0,.83,0,2.77,2.77,0,0,0,3-3.1,2.57,2.57,0,0,0-2.87-2.81,5.45,5.45,0,0,0-1,.09Z"/><path class="cls-1" d="M141.63,26.44v8.08h-1.48V26.44Z"/><path class="cls-1" d="M147.82,34.52l-2.61-8.08h1.61l1.1,3.67c.31,1,.58,2,.79,3h0c.21-1,.5-1.94.82-2.92l1.18-3.7h1.57l-2.79,8.08Z"/><path class="cls-1" d="M158,30.94h-3v2.37h3.41v1.21h-4.89V26.44h4.71v1.21H155v2.08h3Z"/><path class="cls-1" d="M160,34.52V26.44h1.69l2.09,3.47a23.89,23.89,0,0,1,1.38,2.71h0c-.1-1.07-.13-2.12-.13-3.35V26.44h1.37v8.08h-1.53L162.74,31a28.5,28.5,0,0,1-1.45-2.79h0c.06,1.06.08,2.12.08,3.45v2.89Z"/><path class="cls-1" d="M172.9,30.94h-3.05v2.37h3.41v1.21h-4.88V26.44h4.7v1.21h-3.23v2.08h3.05Z"/><path class="cls-1" d="M174.33,33.7l4.13-6v0h-3.77V26.44h5.68v.87l-4.07,5.95v0h4.13v1.22h-6.1Z"/><path class="cls-1" d="M183.43,26.44v8.08H182V26.44Z"/><path class="cls-1" d="M187,32.24l-.69,2.28h-1.53l2.59-8.08h1.89l2.62,8.08h-1.58l-.74-2.28Zm2.32-1.12-.64-2c-.15-.5-.28-1.05-.41-1.52h0c-.12.47-.24,1-.39,1.51l-.62,2Z"/></svg>