<?xml version="1.0" encoding="utf-8"?>
<!-- Generator: Adobe Illustrator 25.0.1, SVG Export Plug-In . SVG Version: 6.00 Build 0)  -->
<svg version="1.1" id="圖層_1" xmlns="http://www.w3.org/2000/svg" xmlns:xlink="http://www.w3.org/1999/xlink" x="0px" y="0px"
	 viewBox="0 0 50 60" style="enable-background:new 0 0 50 60;" xml:space="preserve">
<g id="path3009">
	<g>
		<path d="M12.8,32.1c0.2-0.1,0.4-0.2,0.5-0.5c0.1-0.1,0.1-0.3,0-0.4h-0.1C13.1,31.1,13,31,12.8,31c-0.1,0-0.3,0.1-0.3,0.2
			c-0.1,0.2-0.1,0.4,0,0.6C12.5,32,12.7,32.1,12.8,32.1z"/>
		<path d="M30.9,24.6c0.2,0,0.3-0.2,0.5-0.2c-0.1,0-0.1,0.1,0,0.2c0.1,0,0-0.1,0.1-0.1c0,0,0.2,0,0.1,0s-0.1,0.2-0.1,0.2s0,0,0.1,0
			c0.1,0,0.1-0.1,0.1-0.1s0.1,0,0.1,0s0-0.2,0.1-0.1s0.1,0,0,0.1c0,0.1,0,0.1,0.1,0.2c0,0,0.1-0.1,0.1,0c0,0,0,0.2,0.1,0.1
			s0.1,0,0.2,0s0.1,0.1,0.1,0.2c0.5,0,0.9,0.2,1.4,0.2l0.3-0.2c0.2,0.1,0.2-0.3,0.4-0.3c0.2,0.2,0.3-0.1,0.5-0.2l-0.3,0.5
			c0.4-0.1,0.6-0.6,0.7-0.8c0.1-0.2,0.1-0.4,0.2-0.5c0.7,0,1.4-0.2,2.1-0.5c0.1,0,0.1,0,0.2,0c0.1-0.1,0.1-0.1,0.3-0.1
			c0.2,0,0.2-0.3,0.2-0.3c-0.1,0,0-0.1,0-0.1c0.2-0.1,0.2-0.5,0.2-0.8l0.4-0.3c0.1-0.2-0.2-0.2-0.2-0.4c0.1-0.1,0.1-0.2,0.3-0.2
			c0-0.2-0.2-0.1-0.3-0.2s0-0.2,0-0.4c-0.1-0.1-0.2-0.2-0.3-0.2l0,0.1c-0.1,0.1,0-0.2-0.2-0.1c-0.2,0-0.5,0-0.6,0.1
			c-0.5,0-0.9,0.1-1.4,0.2c-0.7,0.3-1.8,0.1-2.1,1c-0.4,0.2-0.7,0.7-1.1,0.9C32.2,23,31.5,23.8,30.9,24.6z"/>
		<path d="M41.4,27.5c-0.1,0-0.2,0-0.2-0.1c0.1,0,0.1-0.1,0.1-0.2c-0.3,0-0.2-0.3-0.5-0.4c0.1,0,0.2-0.1,0.2-0.2
			c0.1-0.1,0.1-0.2-0.1-0.2c0-0.2-0.2-0.1-0.3-0.2c0.1-0.2-0.3-0.1-0.3-0.2c0.2-0.2-0.2-0.4-0.2-0.5c-0.2,0-0.4,0-0.6-0.1l0.1-0.3
			c-0.2-0.1-0.4-0.4-0.7-0.3c-0.1,0.1-0.1,0-0.1,0c-0.2,0-0.3,0-0.5-0.1c-1.3-0.2-2.2,0.5-3.3,1c-0.2-0.1-0.5,0-0.7-0.1
			c-0.9-0.1-1.7-0.3-2.5-0.6L31.3,25c-0.2,0-0.3,0.1-0.5,0h-0.3c0-0.2-0.2,0-0.2-0.2c-0.9-0.4-1.8-0.8-2.6-1.3
			c0.2-0.6,0.6-1.1,1-1.5c0.2-0.4,0.5-0.7,0.9-0.9c0.1-0.3,0.3-0.6,0.6-0.7c0.1-0.1-0.2-0.3,0.1-0.3c0.3,0,0.3-0.2,0.7-0.5
			c0.3-0.3,0.8-0.4,1-0.7c0.1-0.2,0.3-0.3,0.4-0.5l0.2-0.7c-0.1,0,0,0-0.1,0.1s-0.1,0.1-0.2,0.1c0.2-0.3-0.1-0.7,0.3-0.9
			c0.1-0.1,0.1-0.2,0-0.5c-0.1-0.3,0.1-0.5,0-0.8c-0.1-0.1-0.3-0.1-0.4-0.2c-0.2-0.2-0.5,0-0.6,0.1c-0.4,0.1-0.8,0.2-1.2,0.4
			c-0.2,0-0.4,0-0.5,0.1c-0.2,0-0.5-0.1-0.7,0c0-0.1-0.2-0.2-0.2-0.3c-0.3,0.2-0.3-0.3-0.6-0.1c-0.1-0.2-0.4-0.1-0.4-0.2
			c0-0.1,0.1,0,0.1-0.2s0.2-0.2,0.2-0.3c-0.6-0.2-1.3-0.2-2-0.1c-0.6,0.3-1.3,0.4-1.9,0.5c-0.4,0-0.8,0.3-1.2,0
			c-0.2,0.1-0.3,0.2-0.5,0.1c0-0.1,0-0.1-0.1-0.2c-0.1-0.2-0.4,0.1-0.5,0c0-0.1,0-0.1-0.2-0.1c-0.2,0-0.2,0.2-0.3,0.3l-0.3,0
			c-0.2,0,0.1-0.3,0-0.4c-0.1,0-0.1,0-0.2,0c0.1-0.1,0.3-0.2,0.2-0.4c-0.3,0.1-0.5,0.2-0.7,0.5c-0.1,0-0.2,0.1-0.2,0.2h0.1
			c0,0.2-0.2,0.3-0.4,0.5c-0.1,0.2-0.2,0.3-0.3,0.4c0,0.1,0.1,0.1,0.1,0.1l-0.1,0.2c0.1,0.1,0.2,0,0.2,0.1c0,0.1-0.1,0.1-0.1,0.2
			h0.1c-0.2,0.2,0.1,0.3,0.1,0.5c0.1,0.3,0.4,0.5,0.6,0.7c0.1,0.1,0.1,0.2,0.1,0.3c0.1,1.9,0,3.9,0.9,5.5c0,0.8-0.2,1.6-0.2,2.3
			c-0.1,0.4-0.1,0.7-0.2,1.1c0,0.2,0.2,0.2,0.3,0.3c0.1,0.7,0.2,1.5,0.4,2.2c-0.1,0.8-0.7,1.3-0.9,2c-0.2,0.7-0.7,1.2-0.7,1.9
			L20.2,34c-0.2,0.5-0.4,1-0.4,1.6c-0.1,0.4-0.4,0.8-0.1,1.2c-0.2,0.2-0.5,0.1-0.5,0.4c0,0.6,0.1,1.2,0.2,1.8c0.2,1.1,0.5,2.1,1,3.1
			c-0.1,0.1,0.1,0.1,0.1,0.2c0.2,0.4,0.3,0.7,0.6,1c0.3,0.3,0.5,0.6,0.7,0.9c-0.1,0-0.2-0.1-0.3,0c-0.1,0.3-0.5,0.5-0.7,0.7
			c-0.9,0.7-1.7,1.6-2.6,2.3c-0.3,0.7-0.5,1.4-0.6,2.1c-0.1-0.3-0.2-0.7-0.2-1c-0.1-0.4-0.1-0.8-0.5-1c-0.3-1.1-0.4-2.4-0.7-3.5
			c0.4-0.3,0.7-0.6,0.9-1c0.1-0.9-0.8-1.3-1.4-1.7c0-0.1,0-0.1,0-0.2c0.5-0.6,1.3-0.1,2-0.3L17.6,40c-0.4-0.2-0.9-0.2-1.3-0.2
			c-0.2,0-0.5,0-0.7-0.2c0-0.3,0.4-0.5,0.4-0.8c-0.1-0.5-0.2-0.9-0.4-1.4c0.3,0,0.7-0.1,0.9-0.2c0-0.2,0.2-0.4,0.2-0.6
			c0-1.1-0.3-2.1-1-2.9c-0.1-0.2-0.3-0.3-0.2-0.5c0.3,0.1,0.7,0.1,1,0.1l0.7,0.3c0.2,0.1,0.4,0.1,0.5-0.1c0.1-0.2,0.1-0.4,0-0.6
			c-0.3-0.7-0.8-1.4-1.3-1.9c-0.1-0.2-0.4-0.5-0.3-0.8c0.5,0.2,0.9,0.6,1.5,0.4c0.1,0,0.2-0.2,0.2-0.3l-0.3-1.3
			c-0.3-0.7-0.5-1.3-0.7-2c0.4-0.5,1-0.6,1.5-0.9c0.8-0.5,0.3-1.5,0.3-2.2c0.3-0.2,0.5-0.5,0.5-0.9c-0.1-0.5-0.3-1.1-0.6-1.5
			c0.1,0,0.3,0,0.4-0.1c0.1-0.2,0.1-0.5,0-0.7c-0.5-1.2-1.2-2.3-1.9-3.4c0.6,0.2,1.3,0.1,1.9-0.2c0.5-0.2,0.8-0.7,0.8-1.2
			c-0.2-1.1-0.5-2.1-1-3c1.2-0.3,2.1-1.2,2.5-2.3c0.3-1.2,0.4-2.4,0.3-3.6c-0.2-1.6-0.7-3-1.7-4.3v0c-0.2-0.2-0.3-0.6-0.6-0.6
			C18.9,2.4,19,2.7,18.9,3c0.1,0.3,0.2,0.7,0.4,1c0.3,0.1,0.2-0.3,0.3-0.5c0.4,0.4,0.7,0.9,0.9,1.4C21,6.4,21.2,8,21,9.5
			c-0.1,1.1-0.8,2-1.8,2.3c0.2-1,0-2.1-0.6-3l-0.4-0.2c-0.3-0.2-0.5-0.6-0.9-0.4c-0.6,0.4-0.9,1-1,1.6c0,0.8-0.3,1.7,0.1,2.4
			c0.4,0.5,0.9,0.8,1.5,0.8c0.7,0.9,1.1,1.9,1.2,3c-0.1,0.2-0.2,0.3-0.4,0.4c-0.9,0.4-1.8,0.3-2.6-0.2c-0.7-0.9-1.5-1.7-2.4-2.4
			c-0.2-0.1-0.5-0.2-0.7-0.1c0,0.4-0.2,0.8,0.2,1.1c0.9,0.9,1.9,1.7,3,2.3c0.9,1,1.6,2.1,2,3.3c0,0.1,0.3,0.4,0,0.4
			c-0.3,0-0.4-0.3-0.7-0.3c-0.2,0.2,0,0.6-0.1,0.8c0.2,0.2,0.4,0.2,0.6,0.4c0.3,0.3,0.5,0.7,0.5,1.1c-0.1,0.1-0.2,0.2-0.3,0.2
			c-0.3,0-0.6-0.1-0.9-0.3c-0.5-0.4-0.2-1-0.2-1.6c-0.1,0-0.2,0-0.3,0c-0.3,0.4-0.4,1-0.2,1.5c0.3,0.7,0.9,1.3,1.7,1.4
			c0.1,0.3,0.1,0.7,0,1.1c-0.6,0.4-1.2,0.7-1.9,0.9c-0.3,0-0.3,0.2-0.3,0.4c0.2,0.9,0.6,1.8,1,2.7c0,0.2,0.1,0.3-0.1,0.5
			s-0.3,0-0.6-0.1c-0.3-0.1-0.4-0.6-0.8-0.4c-0.2,0.2-0.3,0.4-0.3,0.6l0.7,1.2c0.4,0.5,0.7,0.9,1,1.5c0,0.1,0,0.1-0.1,0.1
			c-0.6-0.1-1.3-0.3-1.9-0.5c-0.2,0-0.6-0.2-0.6,0s0.1,0.5,0,0.7c0.4,0.9,1.3,1.5,1.7,2.4c0.2,0.4,0.3,0.9,0.2,1.4c-0.3,0-0.7,0-1,0
			c-0.8-1.3-2-2.4-3.4-2.9c-0.4-0.2-0.8-0.2-1.2,0c-0.2,0.3-0.2,0.6,0,0.9c0.3,0.5,0.8,1,1.3,1.3c1,0.6,2,1.5,3.3,1.5
			c0.2,0.4,0.3,0.8,0.4,1.3c0.1,0.6-0.8,0.8-0.6,1.5c0.1,0.3,0.5,0.1,0.8,0.3l-0.2,0.2c-0.2,0.1-0.2,0.3-0.2,0.5
			c0.4,0.4,0.8,0.7,1.2,1c0.1,0.1,0.2,0.2,0.2,0.4c-0.2,0.3-0.5,0.5-0.7,0.6c-0.1-0.1-0.2-0.2-0.3-0.3c-0.6-0.3-1.4-0.3-2,0.2
			c-0.2,0.1-0.1,0.3-0.1,0.5c0,0.2,0,0.4,0.1,0.6c0.7,0.4,1.5,0.4,2.1,0c0.3,1.1,0.6,2.3,0.8,3.4l-1.3,1.4c-0.2,0.2-0.3,0.3-0.6,0.3
			c-0.2-0.1-0.3-0.2-0.4-0.4l-1.4-2.6c-0.2-0.3-0.5-0.7-1-0.7c-0.7,0.4-0.6,1.2-0.6,1.9c0.1,2,0.6,4,1.4,5.9
			c0.1,0.1,0.2,0.2,0.3,0.1c0.2-0.4,0.6-0.8,1-1c0-0.1,0-0.1,0-0.2c-0.3,0-0.5,0-0.8,0.2c-0.2,0-0.2-0.2-0.3-0.4
			c-0.8-1.6-1.1-3.4-1.1-5.2c0.1-0.2,0.1-0.5,0.3-0.7c0.2,0.1,0.3,0.2,0.4,0.3c0.5,0.8,1,1.8,1.4,2.7c-0.3-0.1-0.6-0.4-0.9-0.1
			c0,0.1-0.3,0.1-0.2,0.3c0.5,0.2,1,0.5,1.5,0.7c0.1,0.1,0.3,0.4,0.5,0.2c0.9,0.5,1.8,0.9,2.7,1.3c0.1,0,0.2-0.1,0.2-0.2
			c0.1-0.2,0.1-0.4-0.1-0.5c-0.8-0.3-1.5-0.6-2.3-1L16,49c0.2-0.3,0.4-0.5,0.7-0.7c0.5,0.5,0,1.5,0.5,2c0.2,0,0.3-0.3,0.4-0.4h0.1
			c0,0.1,0.1,0.3,0,0.4c0.1,0,0.1,0.3,0.3,0.1c0.1,0.3,0.5,0.3,0.7,0.4c0.2,0.1,0.3,0.3,0.3,0.6c0.2-0.1,0.3,0.1,0.5,0.1
			c0.2,0,0.2-0.1,0.4-0.2c0.2-0.2,0.5-0.2,0.7-0.1c0.1,0.1,0.1,0.4,0.3,0.3c0.1-0.2,0.4-0.3,0.6-0.4c0.1,0,0.1,0.2,0.1,0.2
			c0.2,0.1,0.4,0.2,0.6,0.1L22,51.4c0.1,0,0.1-0.2,0.1-0.2c0.4,0,0.8,0,1.2,0l0.1-0.1l1,0.2c0.1,0,0.1,0.2,0.1,0.3
			c0.2,0.1,0.2-0.1,0.2-0.2s0-0.2,0.2-0.1s0.1-0.2,0.3-0.3c0.2-0.1,0.4,0,0.6,0c0.3-0.5,0.3-1.1,0.2-1.7c0-0.3-0.3-0.1-0.4-0.3
			c-0.7-0.1-1.3-0.4-2.1-0.4c0-0.1,0-0.1,0-0.2l1.7-1.5l1-1.2c0-0.2,0-0.4,0.1-0.5c-0.1-0.1-0.1-0.3-0.1-0.4c0.3,0,0.3,0.4,0.6,0.5
			l0.2,1.5c0,0.7,0.1,1.3,0.2,2c0.1,0.4,0,0.8,0.3,1c0,0.1-0.2,0-0.1,0.2c0.1,0.1,0.2,0.2,0.5,0.1c0.3-0.1,0.2,0.3,0.5,0.3v0.2h0.2
			c0.2,0,0,0.1,0.1,0.3c0.1,0.2,0.4,0.1,0.5,0.2c0.1,0.1,0,0.2,0.1,0.2H30c1.2,0.1,2.6,0,3.9,0.1c0.1,0,0.2,0.1,0.4,0.1
			c0.1-0.1,0.2-0.3,0.2-0.4H35c0.1,0,0.1,0.2,0.3,0.1c0.2-0.1,0.2-0.5,0.2-0.6c0.1-0.3,0.1-0.7,0-1c-0.2-0.3-0.4-0.4-0.7-0.4
			c-0.5-0.2-1-0.1-1.5-0.2c-0.3,0.1-0.6-0.1-0.8-0.1c-0.6-0.8-0.2-2-0.3-3c-0.1-0.7-0.2-1.5-0.1-2.2l0-0.1c0,0,0-0.1,0.2,0
			s0.1-0.1,0.3-0.1l-0.6-0.7c-0.1,0,0-0.2-0.1-0.2c-0.2-0.2-0.1-0.7-0.5-0.6l-0.7-0.9c-0.8-0.9-1.5-2-2.1-3h-0.1v-0.1h-0.1
			c-0.1-0.3-0.3-0.5-0.4-0.8l0.7-1.3h0.1c0.3-0.6,0.6-1.1,1-1.7c0.1-0.2,0.2-0.5,0.4-0.7l0.3-1.2c0.2-0.5,0.1-1.1,0.5-1.5l-0.1-0.1
			c0.4-0.4,0.8-0.8,1.2-1.1c0.2,0,0.3,0.2,0.4,0.2s0.2,0,0.2,0.1v-0.2l0.1,0.1v0.2c0.2,0.3,0.3-0.3,0.6-0.2c0,0,0-0.1,0-0.1
			c0.1,0.1,0.2,0,0.4,0.1c1.2-0.2,2.5-0.3,3.7-0.6c0.3,0.1,0.5,0.1,0.8,0.1c0-0.1,0.2,0,0.2-0.2c0-0.2,0.2-0.3,0.3-0.4
			c0.4,0.1,0.7-0.2,1-0.2c0.3-0.2,0.6-0.4,1-0.5C41.1,27.8,41.4,27.8,41.4,27.5C41.5,27.5,41.5,27.5,41.4,27.5z M17.6,11.5
			c-0.2-0.1-0.2,0.1-0.2,0.2c-0.3-0.2-0.5-0.6-0.5-1c0.1-0.3-0.2-0.6,0-0.9c0.2-0.3,0.2-0.6,0.5-0.7c0.6-0.1,0.8,0.5,1,0.8l0.1,0
			c0.1,0.6,0.2,1.1,0.2,1.7l-0.1,0.2l-0.6,0C17.9,11.7,17.8,11.5,17.6,11.5z M12.5,35.6c-0.4-0.3-0.8-0.7-1.1-1.1
			c0-0.1,0-0.2,0.1-0.2c0,0,0,0,0,0c0.6,0.2,1.2,0.4,1.8,0.8h0c0.6,0.4,1.2,1,1.6,1.6C14,36.4,13.2,36.1,12.5,35.6z M14,43.6
			c-0.1,0-0.1-0.1-0.1-0.2c0.3-0.2,0.7-0.3,1.1-0.2c0.1,0,0.3,0.1,0.4,0.2C15,43.7,14.5,43.7,14,43.6z"/>
	</g>
</g>
</svg>
