<svg  xmlns="http://www.w3.org/2000/svg" viewBox="0 0 50 50"><path d="M46.58,22.56l.08-.09a1.62,1.62,0,0,0,.1-.18.41.41,0,0,0,.05-.09,1.43,1.43,0,0,0,.08-.22s0-.05,0-.08a1.65,1.65,0,0,0,0-.32,1.55,1.55,0,0,0,0-.31s0-.06,0-.09a1.8,1.8,0,0,0-.08-.21l-.05-.1-.1-.17-.08-.09a.93.93,0,0,0-.14-.14s0,0,0,0L39.32,14.6a1.5,1.5,0,0,0-1.9,2.32l3.84,3.16H25.18a1.5,1.5,0,0,0,0,3H41.26l-3.84,3.17a1.5,1.5,0,0,0,1.9,2.31l7.08-5.82s0,0,0,0A1.85,1.85,0,0,0,46.58,22.56Z"/><path d="M32.07,26.07a1.5,1.5,0,0,0-1.5,1.5V38.22H21.15V11.55a1.52,1.52,0,0,0-.77-1.31L10.94,5H30.57V15.6a1.5,1.5,0,0,0,3,0V3.45A1.5,1.5,0,0,0,32.07,2H5.15A1.13,1.13,0,0,0,4.83,2L4.74,2l-.25.11-.06,0,0,0a1.39,1.39,0,0,0-.27.21l0,0a1.15,1.15,0,0,0-.19.26.41.41,0,0,0,0,.09.87.87,0,0,0-.1.24l0,.09a1.42,1.42,0,0,0-.05.36V39.72a1.42,1.42,0,0,0,.05.36l0,.09a1.86,1.86,0,0,0,.1.25l0,.09a1.42,1.42,0,0,0,.22.28h0a1.64,1.64,0,0,0,.26.2l0,0,14.45,8.1a1.48,1.48,0,0,0,.74.19,1.5,1.5,0,0,0,1.5-1.5v-6.6H32.07a1.5,1.5,0,0,0,1.5-1.5V27.57A1.5,1.5,0,0,0,32.07,26.07ZM18.15,45.26,6.69,38.84V6l11.46,6.42Z"/></svg>