<?xml version="1.0" encoding="utf-8"?>
<!-- Generator: Adobe Illustrator 25.0.1, SVG Export Plug-In . SVG Version: 6.00 Build 0)  -->
<svg version="1.1" id="圖層_1" xmlns="http://www.w3.org/2000/svg" xmlns:xlink="http://www.w3.org/1999/xlink" x="0px" y="0px"
	 viewBox="0 0 50 60" style="enable-background:new 0 0 50 60;" xml:space="preserve">
<path d="M19.7,48.2c0.2-0.6,0.5-1.2,0.8-1.8c0-0.1,0.1-0.1,0.1-0.2c0.4,0,0.8,0,1.2,0c0.2,0,0.4,0,0.7,0c0.2-0.4,0.6-0.7,1-0.7
	c0.1,0,0.3,0,0.4,0c0.4,0.1,0.8-0.1,1-0.4C25,45,25,44.9,25,44.8c0-0.2,0-0.4,0-0.7c0-0.2,0-0.3,0-0.5s0-0.3,0-0.4
	c-0.1-0.6-0.2-1.3-0.3-1.9c0-0.6,0-1.2,0-1.8c0-0.1,0-0.2,0-0.2c0-0.2,0-0.3,0-0.5c-0.1-0.5-0.2-1.1-0.4-1.6c-0.1-0.2,0-0.5-0.1-0.7
	c0-0.5,0-1,0-1.5c0-0.3,0.1-0.6,0.2-0.9c0-0.1,0.1-0.3-0.1-0.3c-0.4-0.1-0.6-0.4-0.7-0.8c-0.3-1-0.5-2.1-0.5-3.2
	c-0.1-0.6,0.3-1.1,0.9-1.3c0.3-0.1,0.6-0.3,0.9-0.4c0.2-0.1,0.3-0.4,0.2-0.7C25,27.2,25,26.9,25,26.6c0-0.1,0-0.3-0.1-0.4v-0.1
	c0.1-0.1,0-0.2,0-0.4c0-0.4,0.4-0.8,0.8-0.8c0.2,0,0.3,0,0.5,0c0.4,0.1,0.7,0.4,0.8,0.8c0,0.3,0,0.6,0,0.9c-0.1,0.3-0.1,0.6-0.2,0.9
	c-0.1,0.3,0,0.7,0.3,0.8c0.4,0.2,0.8,0.4,1.1,0.5c0.4,0.2,0.6,0.6,0.6,1c0,0.3,0,0.7,0,1c-0.1,0.1,0,0.2,0,0.4
	c-0.2,0.6-0.3,1.2-0.4,1.8c0,0.4-0.3,0.7-0.7,0.8c-0.1,0-0.2,0.1-0.1,0.3c0.1,0.2,0.1,0.3,0.1,0.5c0,0.1,0,0.2,0,0.4
	c0,0.3,0,0.6,0,0.8c0,0.3,0,0.6,0,0.9c-0.1,0.6-0.2,1.2-0.4,1.7c0,0.2-0.1,0.4,0,0.5c0,0.2,0,0.4,0,0.6c0,0,0,0.1,0,0.1
	c0,0.5,0,1,0,1.5c-0.2,0.8-0.3,1.5-0.4,2.3c0,0.4,0,0.9,0,1.3c0.1,0.4,0.3,0.6,0.9,0.6c0.2,0.1,0.3,0,0.5,0c0.4,0,0.8,0.2,1,0.6
	c0,0.1,0.1,0.2,0.2,0.2c0.5,0,0.9,0,1.4,0c0.2,0,0.3-0.1,0.4,0c0.4,0.7,0.7,1.4,1,2.2c0.1,0.3,0.2,0.6,0.4,0.9
	c0,0.1,0.1,0.2,0.1,0.3h9.9l-8.3-20.3L26,8.9l-8.4,20.4L9.2,49.7h9.9C19.3,49.2,19.5,48.7,19.7,48.2z"/>
</svg>
